<?xml version="1.0" encoding="utf-8"?>
<!-- Generator: Adobe Illustrator 22.1.0, SVG Export Plug-In . SVG Version: 6.00 Build 0)  -->
<svg version="1.1" xmlns="http://www.w3.org/2000/svg" xmlns:xlink="http://www.w3.org/1999/xlink" x="0px" y="0px"
	 viewBox="0 0 750 500" style="enable-background:new 0 0 750 500;" xml:space="preserve">
<style type="text/css">
	.st0{fill:url(#SVGID_1_);}
	.st1{fill:url(#SVGID_2_);}
	.st2{fill:#29A9E0;}
	.st3{fill:url(#SVGID_3_);}
	.st4{fill:#4D8593;}
	.st5{fill:url(#SVGID_4_);}
	.st6{fill:url(#SVGID_5_);}
	.st7{fill:url(#SVGID_6_);}
	.st8{fill:url(#SVGID_7_);}
	.st9{fill:url(#SVGID_8_);}
	.st10{fill:#F2F2F2;}
	.st11{fill:url(#SVGID_9_);}
	.st12{fill:url(#SVGID_10_);}
	.st13{fill:url(#SVGID_11_);}
	.st14{fill:url(#SVGID_12_);}
	.st15{fill:#001E48;}
	.st16{font-family:'Raleway-Bold';}
	.st17{font-size:28.9359px;}
	.st18{fill:#E26B6D;}
	.st19{fill:#FFFFFF;}
	.st20{fill:url(#SVGID_13_);}
	.st21{fill:url(#SVGID_14_);}
	.st22{fill:#F1CBB3;}
	.st23{fill:#E29F77;}
	.st24{fill:#EAAB3B;}
	.st25{fill:#253770;}
	.st26{fill:url(#SVGID_15_);}
	.st27{fill:url(#SVGID_16_);}
	.st28{fill:url(#SVGID_17_);}
	.st29{fill:url(#SVGID_18_);}
	.st30{fill:#A7ADC0;}
	.st31{fill:url(#SVGID_19_);}
	.st32{fill:url(#SVGID_20_);}
	.st33{fill:url(#SVGID_21_);}
	.st34{fill:#EDC2A9;}
	.st35{fill:#DBBDAF;}
	.st36{fill:url(#SVGID_22_);}
	.st37{fill:url(#SVGID_23_);}
	.st38{fill:#5DA1F0;}
	.st39{fill:url(#SVGID_24_);}
	.st40{fill:url(#SVGID_25_);}
	.st41{fill:url(#SVGID_26_);}
	.st42{fill:url(#SVGID_27_);}
	.st43{fill:url(#SVGID_28_);}
	.st44{fill:url(#SVGID_29_);}
	.st45{fill:url(#SVGID_30_);}
	.st46{fill:url(#SVGID_31_);}
	.st47{fill:url(#SVGID_32_);}
	.st48{fill:url(#SVGID_33_);}
	.st49{fill:url(#SVGID_34_);}
	.st50{fill:url(#SVGID_35_);}
	.st51{fill:url(#SVGID_36_);}
	.st52{fill:url(#SVGID_37_);}
	.st53{fill:url(#SVGID_38_);}
	.st54{fill:url(#SVGID_39_);}
</style>
<g id="BACKGROUND">
</g>
<g id="OBJECTS">
	<g>
		<g>
			<g>
				<g>
					<linearGradient id="SVGID_1_" gradientUnits="userSpaceOnUse" x1="197.2729" y1="332.3082" x2="389.9027" y2="139.6784">
						<stop  offset="0" style="stop-color:#66A8DE"/>
						<stop  offset="0.1715" style="stop-color:#85B9E5"/>
						<stop  offset="0.5657" style="stop-color:#C6DFF3"/>
						<stop  offset="0.8526" style="stop-color:#EFF6FC"/>
						<stop  offset="1" style="stop-color:#FFFFFF"/>
					</linearGradient>
					<path class="st0" d="M507.4,400.1H75.9c0,0,0-324.3,0-324.3c20-3.6,39.4,4.8,46.3,24.4c6.4,18.3,6.1,40.5,26.1,50.3
						c13.9,6.9,29.9,2.7,44.5,1.1c15.6-1.7,32.7,1,46.4,9.5c16.4,10.2,22.1,26.6,28.9,43.7c8.9,22.4,23.7,40.1,48.6,44.1
						c28.9,4.7,68.7-0.9,92.8,19c20,16.5,14.2,47,30.4,66.2C461.6,360.1,513.8,346.5,507.4,400.1z"/>
				</g>
				<g>
					<linearGradient id="SVGID_2_" gradientUnits="userSpaceOnUse" x1="202.3639" y1="324.1959" x2="362.8747" y2="163.6851">
						<stop  offset="0" style="stop-color:#66A8DE"/>
						<stop  offset="0.1715" style="stop-color:#85B9E5"/>
						<stop  offset="0.5657" style="stop-color:#C6DFF3"/>
						<stop  offset="0.8526" style="stop-color:#EFF6FC"/>
						<stop  offset="1" style="stop-color:#FFFFFF"/>
					</linearGradient>
					<path class="st1" d="M478.4,400.1H75.9c0,0,0-301.3,0-301.3c18.6-3.4,38.2,4.5,44.6,22.7c6,17,5.7,37.7,24.3,46.8
						c13,6.4,27.8,2.5,41.4,1c14.5-1.6,30.4,0.9,43.2,8.8c15.3,9.5,20.5,24.7,26.9,40.6c8.3,20.8,22,37.3,45.1,41
						c26.8,4.4,63.9-0.8,86.2,17.7c18.6,15.4,13.2,43.6,28.2,61.5C435.9,362.9,484.4,350.3,478.4,400.1z"/>
				</g>
			</g>
			<path class="st2" d="M527.2,403.1H75.9v-4h451.3c1.1,0,2,0.9,2,2l0,0C529.2,402.2,528.3,403.1,527.2,403.1z"/>
		</g>
		<g>
			<g>
				<g>
					<g>
						<g>
							<g>
								<g>
									<linearGradient id="SVGID_3_" gradientUnits="userSpaceOnUse" x1="387.0668" y1="352.118" x2="503.7335" y2="365.4513">
										<stop  offset="1.165870e-02" style="stop-color:#5692A3"/>
										<stop  offset="0.1678" style="stop-color:#629DA5"/>
										<stop  offset="0.9961" style="stop-color:#A0D6AD"/>
									</linearGradient>
									<path class="st3" d="M477.6,336.9c-2.1-0.9-14.1-0.7-19.4-0.5c-1.6,0-3.2,0.8-4.2,2c-1.5,1.8-3.9,4.4-5.3,5.7
										c0.4-2.8,1-5.7,1.1-8.6c-2.7-0.5-5.7-0.3-8.5-0.7c-2.8-0.4-5.8-0.6-8.6-0.6c-2.6,0-6.4-0.4-8.1,1.2
										c-1.8,1.7-3.7,4.8-5.1,6.9c-0.1-1.8,0.5-3.7,0.9-5.6c0.7-3.3,0.1-3-3.3-3.7c-4.1-0.8-8.3-1.3-12.4-1.2
										c-5.4,0-10.1,0.5-15.2,1.4c-3,0.5-2.9,0.2-4,3.1c-0.7,1.9-1.7,4-2.7,5.8c-2.7-1.3-2.8-6.3-2.9-8.8
										c-6.5-0.1-13.2,6.9-17.6,11.1c-0.9,0.8-9.2,9.4-9.6,9.8c-4.6,4.8-2.9,12.7,3.3,15.2c3.2,1.3,7.3,2.7,12.4,4.2
										c4.5,1.3,25.3,5.5,31.6,3.8c-0.9-3.1-2.5-6.2-2.9-9.4c2.7,1.5,4.6,4.8,6.1,7.5c0.2,0.3,0.6,1,1,1.8c1.2,2,3.4,3.1,5.7,2.8
										c6.2-0.9,17.6-3.9,22.9-5.8c-1.5-2.8-3.2-4.6-4.8-7.5c3,1,5.1,4.4,7.8,6c1.9,1.2,1.1,1.4,3.3,0.2c1.2-0.6,2.2-1.5,3.4-2.1
										c-3-2.8-5.2-6.5-8.1-9.5c2,2.1,5.1,3.6,7.5,5.2c3.2,2.2,3.7,2.2,7.1,0.3c5.9-3.3,12.3-7,17.6-11
										c4.2-3.2,10.6-7.7,12.8-12.5C480.6,340.4,481.2,338.4,477.6,336.9z"/>
								</g>
							</g>
							<path class="st4" d="M465.9,345.5c-6.7,2-13.6,3.9-20.5,5.6c6.5,0.7,13,0.6,19.4-0.4c0.9-0.1,1.3,1.3,0.4,1.4
								c-7.8,1.2-15.6,1.2-23.3,0c-0.1,0-0.2-0.1-0.3-0.1c-2.7,0.6-5.3,1.2-8,1.7c4.6,2.8,9.5,5,14.8,6.4c0.9,0.3,0.6,1.7-0.4,1.4
								c-5.8-1.6-11.2-4.1-16.3-7.3c-0.1,0-0.1-0.1-0.2-0.2c-2.6,0.5-5.1,0.9-7.7,1.4c1.6,1.4,3.3,2.7,4.8,4.3
								c1.8,1.9,3.4,3.9,5,5.9c0.6,0.7-0.7,1.5-1.3,0.8c-3.2-4-6.8-7.2-10.5-10.7c-3.1,0.5-6.2,0.9-9.3,1.3c1.9,1.7,3.9,3.1,5.7,4.9
								c1.9,1.9,3.5,3.9,5,6.1c0.5,0.8-0.7,1.5-1.3,0.8c-1.7-2.4-3.5-4.6-5.6-6.7c-1.8-1.8-4-3.2-5.8-5c-2.8,0.3-5.7,0.6-8.5,0.8
								c3.9,4,7,8.6,10.1,13.4c0.5,0.8-0.7,1.6-1.3,0.8c-3.2-5-6.5-9.9-10.8-14c-4.9,0.3-9.9,0.4-14.8,0.3c2.8,4.3,5.1,8.9,7,13.6
								c0.4,0.9-1.1,1.3-1.4,0.4c-2-4.9-4.5-9.6-7.4-14.1c-2.9-0.1-5.7-0.2-8.6-0.5c3.1,3.6,5.6,7.5,6.9,12.1
								c0.3,0.9-1.1,1.3-1.4,0.4c-1.4-4.7-4.1-8.7-7.3-12.4c-0.1-0.1-0.1-0.2-0.2-0.3c-2.9-0.3-5.8-0.6-8.6-1
								c2.7,2.1,4.9,4.7,6.5,7.8c0.4,0.8-0.8,1.6-1.3,0.8c-2-3.8-4.9-6.9-8.6-9.1c-2.4-0.4-4.8-0.9-7.1-1.4
								c-0.9-0.2-0.6-1.6,0.4-1.4c2.3,0.5,4.6,1,6.9,1.3c0.1,0,0.2,0,0.4,0.1c0.1,0,0.1,0,0.2,0c5-3.5,8.6-8.1,11-13.7
								c0.4-0.9,1.7-0.2,1.3,0.7c-2.2,5.4-5.7,9.8-10.3,13.4c3,0.5,6,0.8,9,1.1c0-0.2,0.1-0.4,0.3-0.6c5.8-4.2,11.5-8.5,15.6-14.4
								c0.5-0.8,1.8-0.1,1.3,0.7c-4.1,5.9-9.7,10.2-15.4,14.4c4.5,0.4,9.1,0.6,13.7,0.6c5.3-6.8,10.5-13.7,12.9-22
								c0.3-0.9,1.7-0.6,1.4,0.4c-2.4,8.2-7.3,15-12.5,21.6c3,0,6-0.1,9.1-0.3c4.6-5.6,9.9-11.1,12.1-18.1c0.3-0.9,1.7-0.6,1.4,0.4
								c-2.1,6.8-7,12.2-11.6,17.7c2.6-0.2,5.3-0.4,7.9-0.7c0-0.2,0.1-0.3,0.3-0.4c5.9-3.2,10.7-7.8,15.5-12.5
								c0.7-0.7,1.7,0.3,1.1,1c-4.3,4.2-8.6,8.4-13.7,11.6c2.9-0.3,5.8-0.7,8.7-1.2c0.3-1.4,2.6-2.8,3.3-3.5
								c2.8-2.7,5.6-5.2,8.5-7.8c0.7-0.6,1.8,0.4,1.1,1c-2,1.7-3.9,3.5-5.9,5.3c-0.4,0.4-4,3.4-5.2,4.7c2.7-0.4,5.4-0.9,8.1-1.4
								c0,0,0,0,0,0c3.8-3.9,8-7.3,12.6-10.1c0.8-0.5,1.6,0.8,0.8,1.3c-3.9,2.4-7.5,5.2-10.8,8.3c5.1-1,10.2-2.2,15.3-3.5
								c0.1-0.1,0.1-0.2,0.3-0.3c4-2,7.9-3.9,11.9-5.9c0.8-0.4,1.6,0.8,0.8,1.3c-2.1,1-4.2,2.1-6.3,3.1c3.3-0.9,6.6-1.9,9.9-2.9
								C466.4,343.9,466.8,345.3,465.9,345.5z"/>
						</g>
					</g>
					<g>
						<g>
							<g>
								<g>
									
										<linearGradient id="SVGID_4_" gradientUnits="userSpaceOnUse" x1="410.4748" y1="323.6703" x2="462.4719" y2="269.6733" gradientTransform="matrix(0.9721 0.2348 -0.2348 0.9721 83.6403 -90.424)">
										<stop  offset="1.165870e-02" style="stop-color:#5692A3"/>
										<stop  offset="0.1678" style="stop-color:#629DA5"/>
										<stop  offset="0.9961" style="stop-color:#A0D6AD"/>
									</linearGradient>
									<path class="st5" d="M454.5,275.2c-2.3,0.2-12.8,5.9-17.5,8.5c-1.4,0.8-2.4,2.1-2.8,3.7c-0.5,2.3-1.4,5.7-2.1,7.5
										c-1-2.7-1.8-5.5-3-8.1c-2.6,0.8-5.2,2.3-7.8,3.3c-2.7,1-5.4,2.1-7.9,3.5c-2.3,1.2-5.9,2.6-6.6,4.8c-0.8,2.3-1,6-1.3,8.4
										c-0.9-1.5-1.3-3.6-1.8-5.4c-0.9-3.2-1.3-2.7-4.6-1.7c-4,1.2-7.9,2.7-11.6,4.6c-4.7,2.5-8.7,5.1-12.8,8.2
										c-2.4,1.8-2.4,1.5-2.1,4.6c0.2,2,0.3,4.3,0.3,6.4c-3,0.1-5.4-4.4-6.7-6.5c-5.8,2.9-8.5,12.2-10.5,17.9
										c-0.4,1.1-3.8,12.5-4,13.1c-1.9,6.4,3.3,12.6,10,12c3.5-0.3,7.7-1,12.9-2c4.6-0.9,25-6.8,29.7-11.2c-2.2-2.3-5.1-4.4-6.9-7
										c3.1,0.1,6.3,2.1,8.8,3.8c0.3,0.2,1,0.6,1.8,1.1c2,1.3,4.5,1.2,6.4-0.2c5.1-3.6,13.8-11.5,17.6-15.7
										c-2.7-1.8-5-2.6-7.8-4.4c3.1-0.4,6.6,1.5,9.6,1.8c2.2,0.2,1.6,0.7,3-1.4c0.8-1.1,1.3-2.3,2-3.5c-3.9-1.1-7.6-3.4-11.6-4.7
										c2.8,0.9,6.2,0.8,9,1.2c3.9,0.5,4.3,0.3,6.5-3c3.7-5.6,7.7-11.8,10.5-17.9c2.2-4.8,5.9-11.7,5.6-17
										C458.8,276.9,458.4,274.9,454.5,275.2z"/>
								</g>
							</g>
							<path class="st4" d="M448.1,288.3c-5,4.9-10.2,9.7-15.5,14.4c6.1-2.3,11.8-5.4,17-9.3c0.8-0.6,1.8,0.5,1,1.1
								c-6.3,4.7-13.2,8.2-20.7,10.7c-0.1,0-0.2,0-0.3,0c-2.1,1.8-4.2,3.5-6.3,5.2c5.4,0.4,10.8,0,16.1-1.1c0.9-0.2,1.3,1.2,0.3,1.4
								c-5.9,1.2-11.8,1.6-17.8,1c-0.1,0-0.1,0-0.2-0.1c-2,1.6-4.1,3.2-6.2,4.8c2.1,0.5,4.2,0.9,6.3,1.6c2.5,0.8,4.8,1.9,7.2,2.9
								c0.9,0.4,0.1,1.6-0.8,1.3c-4.7-2.1-9.3-3.3-14.2-4.6c-2.5,1.9-5.1,3.7-7.7,5.4c2.4,0.6,4.9,1,7.4,1.8
								c2.5,0.8,4.9,1.9,7.3,3.1c0.8,0.4,0.1,1.7-0.8,1.3c-2.6-1.4-5.2-2.5-8.1-3.3c-2.4-0.7-5-1-7.4-1.7c-2.4,1.6-4.8,3.1-7.2,4.6
								c5.4,1.7,10.2,4.4,15.1,7.2c0.8,0.5,0.1,1.7-0.8,1.3c-5.1-2.9-10.3-5.8-16-7.5c-4.2,2.5-8.6,4.9-13,7.1
								c4.5,2.6,8.6,5.5,12.6,8.8c0.7,0.6-0.4,1.6-1.1,1c-4.1-3.5-8.4-6.5-13.1-9.1c-2.6,1.2-5.2,2.4-7.9,3.5
								c4.4,1.8,8.4,4.1,11.7,7.5c0.7,0.7-0.4,1.7-1.1,1c-3.4-3.5-7.6-5.9-12.2-7.6c-0.1,0-0.2-0.1-0.3-0.2
								c-2.7,1.1-5.4,2.1-8.1,3.1c3.3,0.6,6.5,1.9,9.4,3.9c0.8,0.5,0,1.8-0.8,1.3c-3.6-2.5-7.5-3.8-11.8-4.1c-2.3,0.7-4.6,1.4-7,2.1
								c-0.9,0.2-1.3-1.2-0.3-1.4c2.3-0.6,4.5-1.3,6.8-2c0.1-0.1,0.2-0.1,0.3-0.1c0.1,0,0.1,0,0.2-0.1c2.8-5.4,3.9-11.2,3.4-17.3
								c-0.1-0.9,1.4-0.9,1.5,0c0.5,5.8-0.5,11.4-2.9,16.6c2.9-1,5.7-2,8.5-3.2c-0.1-0.2-0.1-0.4,0-0.6c3.2-6.4,6.3-12.8,7.2-20
								c0.1-0.9,1.6-0.9,1.5,0c-0.9,7.1-3.9,13.5-7,19.9c4.2-1.8,8.3-3.7,12.4-5.8c1.5-8.4,2.9-16.9,1.3-25.5
								c-0.2-0.9,1.2-1.3,1.4-0.3c1.6,8.3,0.4,16.7-1,24.9c2.7-1.4,5.3-2.9,7.9-4.4c1.5-7.1,3.7-14.4,2.4-21.7
								c-0.2-0.9,1.3-1.3,1.4-0.3c1.3,7.1-0.5,14.1-2.1,21c2.3-1.4,4.5-2.8,6.7-4.2c0-0.2,0-0.3,0.1-0.5c3.8-5.6,5.9-11.9,7.9-18.2
								c0.3-0.9,1.7-0.5,1.4,0.4c-1.8,5.7-3.7,11.4-6.8,16.6c2.4-1.6,4.8-3.3,7.2-5.1c-0.4-1.4,1-3.7,1.3-4.7
								c1.2-3.6,2.6-7.2,4-10.8c0.3-0.9,1.8-0.5,1.4,0.4c-1,2.4-1.9,4.9-2.8,7.4c-0.2,0.5-2,4.9-2.4,6.6c2.2-1.6,4.4-3.3,6.5-5
								c0,0,0,0,0,0c1.5-5.2,3.7-10.1,6.5-14.8c0.5-0.8,1.7,0,1.3,0.8c-2.4,3.9-4.2,8-5.7,12.4c4.1-3.3,8-6.7,11.9-10.2
								c0-0.1,0-0.2,0.1-0.4c2.6-3.6,5.2-7.1,7.8-10.7c0.6-0.8,1.8,0,1.3,0.8c-1.4,1.9-2.8,3.8-4.1,5.6c2.5-2.3,5-4.7,7.5-7.1
								C447.8,286.5,448.8,287.6,448.1,288.3z"/>
						</g>
					</g>
					<g>
						<g>
							<g>
								<g>
									<linearGradient id="SVGID_5_" gradientUnits="userSpaceOnUse" x1="370.0929" y1="310.7625" x2="416.0929" y2="264.0958">
										<stop  offset="1.165870e-02" style="stop-color:#5692A3"/>
										<stop  offset="0.1678" style="stop-color:#629DA5"/>
										<stop  offset="0.9961" style="stop-color:#A0D6AD"/>
									</linearGradient>
									<path class="st6" d="M426,224.3c-2.1,0.9-10.1,9.8-13.7,13.7c-1.1,1.2-1.6,2.8-1.4,4.4c0.3,2.4,0.6,5.8,0.5,7.8
										c-1.8-2.2-3.5-4.6-5.5-6.7c-2.2,1.6-4.2,3.9-6.3,5.7c-2.2,1.8-4.4,3.8-6.3,5.9c-1.7,1.9-4.7,4.4-4.6,6.7c0,2.4,1,6,1.5,8.4
										c-1.3-1.2-2.4-2.9-3.4-4.5c-1.9-2.8-2.1-2.1-4.9-0.1c-3.4,2.4-6.6,5.1-9.4,8.2c-3.6,3.9-6.5,7.7-9.4,12
										c-1.7,2.5-1.8,2.2-0.4,5c0.9,1.9,1.7,4,2.4,5.9c-2.8,1.1-6.5-2.3-8.4-3.9c-4.5,4.7-4,14.3-3.9,20.4
										c0,1.2,0.6,13.1,0.6,13.7c0.3,6.6,7.3,10.8,13.4,8c3.2-1.5,7-3.4,11.6-6.1c4-2.3,21.3-14.7,24.3-20.3
										c-2.8-1.5-6.2-2.5-8.9-4.4c3-0.9,6.7-0.1,9.6,0.7c0.3,0.1,1.1,0.3,2,0.5c2.3,0.5,4.6-0.4,6-2.3c3.6-5.1,9.2-15.4,11.4-20.6
										c-3.1-0.8-5.6-0.8-8.8-1.6c2.8-1.5,6.7-0.7,9.7-1.5c2.1-0.6,1.8,0.1,2.4-2.3c0.4-1.3,0.5-2.6,0.8-3.9
										c-4.1,0.2-8.3-0.7-12.5-0.7c2.9,0,6.1-1.3,8.9-1.9c3.8-0.8,4.2-1.2,5.1-4.9c1.7-6.5,3.3-13.7,4-20.3
										c0.5-5.3,1.7-13-0.4-17.9C430.6,224.5,429.6,222.7,426,224.3z"/>
								</g>
							</g>
							<path class="st4" d="M424.3,238.7c-3.1,6.3-6.4,12.6-9.9,18.7c5-4.2,9.3-9,13-14.4c0.5-0.8,1.8-0.1,1.3,0.7
								c-4.4,6.5-9.7,12.1-16,17c-0.1,0.1-0.2,0.1-0.3,0.1c-1.4,2.4-2.8,4.7-4.2,7c5.2-1.4,10.2-3.5,14.8-6.3
								c0.8-0.5,1.6,0.7,0.8,1.2c-5.1,3.1-10.6,5.4-16.5,6.8c-0.1,0-0.1,0-0.2,0c-1.4,2.2-2.8,4.4-4.2,6.5c2.1-0.2,4.3-0.5,6.4-0.6
								c2.6,0,5.2,0.2,7.8,0.4c0.9,0.1,0.6,1.5-0.3,1.4c-5.1-0.4-9.9,0-15,0.3c-1.8,2.6-3.6,5.1-5.4,7.6c2.5-0.2,5-0.7,7.5-0.8
								c2.7-0.1,5.3,0.2,7.9,0.6c0.9,0.1,0.6,1.6-0.3,1.4c-2.9-0.4-5.8-0.6-8.7-0.5c-2.5,0.1-5,0.7-7.6,0.8
								c-1.7,2.3-3.5,4.5-5.3,6.7c5.6-0.1,11.1,0.8,16.7,1.8c0.9,0.2,0.6,1.6-0.3,1.4c-5.8-1.1-11.6-2.1-17.6-1.8
								c-3.2,3.8-6.5,7.5-9.9,11c5.1,0.9,10,2.3,14.8,4.2c0.9,0.3,0.2,1.6-0.7,1.3c-5-1.9-10.1-3.3-15.3-4.3c-2,2-4.1,4-6.2,5.9
								c4.7,0.2,9.3,1.1,13.6,3.2c0.8,0.4,0.2,1.7-0.7,1.3c-4.4-2.2-9.2-3-14-3.1c-0.1,0-0.2,0-0.3-0.1c-2.2,1.9-4.4,3.8-6.7,5.6
								c3.4-0.5,6.8-0.3,10.1,0.6c0.9,0.2,0.6,1.7-0.3,1.4c-4.2-1.1-8.4-1.1-12.5,0c-1.9,1.5-3.9,2.9-5.9,4.2
								c-0.8,0.5-1.6-0.7-0.8-1.2c2-1.3,3.9-2.7,5.7-4.1c0.1-0.1,0.2-0.2,0.3-0.2c0.1,0,0.1-0.1,0.2-0.1c0.8-6,0-11.9-2.5-17.4
								c-0.4-0.9,1-1.3,1.4-0.5c2.4,5.3,3.3,10.9,2.8,16.6c2.4-1.9,4.7-3.8,7-5.8c-0.1-0.1-0.2-0.4-0.2-0.6
								c0.9-7.1,1.7-14.2,0.2-21.2c-0.2-0.9,1.2-1.4,1.4-0.5c1.5,7,0.8,14.1,0,21.1c3.4-3,6.6-6.2,9.8-9.5c-1.3-8.5-2.8-17-7.2-24.5
								c-0.5-0.8,0.8-1.6,1.2-0.8c4.3,7.3,5.9,15.6,7.3,23.9c2-2.2,4-4.5,6-6.8c-0.9-7.2-1.3-14.8-5-21.3c-0.5-0.8,0.8-1.6,1.2-0.8
								c3.5,6.2,4.2,13.5,5,20.5c1.7-2,3.3-4.1,4.9-6.2c-0.1-0.1-0.1-0.3-0.1-0.5c1.7-6.5,1.6-13.1,1.4-19.8c0-0.9,1.4-1,1.5-0.1
								c0.2,6,0.3,12-0.9,17.9c1.7-2.3,3.4-4.7,5.1-7.1c-0.8-1.2-0.3-3.8-0.3-4.9c0-3.8,0-7.7,0.2-11.5c0-0.9,1.5-1,1.5-0.1
								c-0.1,2.6-0.1,5.2-0.2,7.9c0,0.6-0.2,5.3-0.1,7c1.5-2.3,3-4.6,4.5-6.9c0,0,0,0,0,0c-0.3-5.4,0.1-10.8,1.2-16.1
								c0.2-0.9,1.6-0.6,1.4,0.3c-0.9,4.5-1.3,9-1.3,13.5c2.7-4.4,5.4-9,7.9-13.6c0-0.1,0-0.2,0-0.4c1.3-4.2,2.6-8.4,3.8-12.6
								c0.3-0.9,1.7-0.6,1.4,0.3c-0.7,2.2-1.4,4.5-2,6.7c1.6-3,3.2-6.1,4.7-9.2C423.4,237.2,424.7,237.9,424.3,238.7z"/>
						</g>
					</g>
				</g>
				<g>
					<g>
						<g>
							<g>
								<g>
									
										<linearGradient id="SVGID_6_" gradientUnits="userSpaceOnUse" x1="161.9899" y1="358.5511" x2="284.1625" y2="358.5511" gradientTransform="matrix(-0.9255 0.3787 0.3787 0.9255 243.4439 -64.3121)">
										<stop  offset="1.165870e-02" style="stop-color:#5692A3"/>
										<stop  offset="0.1678" style="stop-color:#629DA5"/>
										<stop  offset="0.9961" style="stop-color:#A0D6AD"/>
									</linearGradient>
									<path class="st7" d="M107.8,345.4c2-1.2,13.8-2.8,19.1-3.5c1.6-0.2,3.2,0.3,4.5,1.4c1.8,1.6,4.5,3.8,6.1,4.8
										c-0.8-2.7-1.8-5.5-2.4-8.3c2.6-0.9,5.6-1.2,8.3-1.9c2.7-0.8,5.6-1.5,8.4-1.8c2.6-0.3,6.2-1.4,8.2,0c2,1.4,4.4,4.2,6.1,6
										c-0.2-1.8-1.1-3.6-1.7-5.4c-1.2-3.1-0.6-2.9,2.7-4.1c3.9-1.4,8-2.5,12.1-3.1c5.3-0.8,10-1,15.2-0.9c3,0,2.9-0.2,4.4,2.5
										c1,1.8,2.3,3.7,3.5,5.3c2.5-1.7,1.8-6.7,1.6-9.2c6.4-1,14.1,4.8,19.1,8.3c1,0.7,10.5,7.9,11,8.3c5.3,4,4.8,12.2-1,15.5
										c-3,1.8-6.8,3.8-11.6,6.1c-4.2,2-24.2,9.2-30.6,8.5c0.4-3.2,1.5-6.5,1.4-9.8c-2.4,1.9-3.9,5.5-4.9,8.3
										c-0.1,0.3-0.4,1.1-0.7,2c-0.8,2.2-2.9,3.6-5.3,3.6c-6.2,0-18-1.2-23.5-2.3c1.1-3,2.5-5.1,3.7-8.2c-2.8,1.5-4.4,5.1-6.8,7.1
										c-1.7,1.4-0.9,1.5-3.2,0.7c-1.3-0.5-2.4-1.1-3.7-1.6c2.5-3.2,4.2-7.2,6.6-10.6c-1.7,2.4-4.5,4.3-6.6,6.3
										c-2.9,2.7-3.3,2.8-7,1.4c-6.3-2.3-13.2-5-19-8.2c-4.7-2.6-11.6-6-14.6-10.4C105.3,349.3,104.5,347.4,107.8,345.4z"/>
								</g>
							</g>
							<path class="st4" d="M120.7,352.1c7,1,14,1.8,21.1,2.4c-6.3,1.7-12.7,2.6-19.3,2.5c-0.9,0-1.1,1.5-0.2,1.5
								c7.9,0,15.6-1.2,23.1-3.5c0.1,0,0.2-0.1,0.3-0.2c2.7,0.2,5.4,0.4,8.2,0.5c-4.1,3.5-8.7,6.4-13.6,8.6
								c-0.9,0.4-0.3,1.7,0.6,1.4c5.5-2.5,10.5-5.7,15-9.7c0.1-0.1,0.1-0.1,0.1-0.2c2.6,0.1,5.2,0.2,7.8,0.2c-1.4,1.6-2.9,3.2-4.1,5
								c-1.5,2.1-2.8,4.4-4.1,6.6c-0.5,0.8,0.9,1.4,1.4,0.6c2.6-4.5,5.6-8.1,8.8-12.1c3.1,0,6.3,0,9.4-0.1c-1.6,2-3.4,3.7-4.9,5.7
								c-1.6,2.1-2.9,4.4-4,6.8c-0.4,0.9,0.9,1.4,1.4,0.6c1.3-2.6,2.8-5.1,4.5-7.4c1.6-2,3.5-3.7,4.9-5.8c2.9-0.1,5.7-0.3,8.6-0.5
								c-3.3,4.6-5.7,9.6-8,14.7c-0.4,0.9,1,1.4,1.4,0.6c2.4-5.4,4.9-10.7,8.5-15.5c4.9-0.5,9.8-1.1,14.7-1.9
								c-2.1,4.7-3.7,9.5-4.9,14.5c-0.2,0.9,1.2,1.1,1.5,0.2c1.2-5.2,3-10.2,5.2-15c2.8-0.5,5.6-1.1,8.4-1.8c-2.5,4-4.4,8.3-5,13
								c-0.1,0.9,1.3,1.1,1.5,0.2c0.7-4.9,2.7-9.2,5.4-13.3c0.1-0.1,0.1-0.2,0.1-0.3c2.8-0.7,5.6-1.5,8.4-2.3
								c-2.3,2.5-4.1,5.4-5.2,8.7c-0.3,0.9,1,1.5,1.4,0.6c1.4-4.1,3.8-7.5,7.1-10.3c2.3-0.8,4.6-1.6,6.9-2.4
								c0.9-0.3,0.3-1.7-0.6-1.4c-2.2,0.9-4.4,1.6-6.7,2.4c-0.1,0-0.2,0-0.3,0.1c-0.1,0-0.1,0-0.2,0.1c-5.4-2.7-9.8-6.7-12.9-11.9
								c-0.5-0.8-1.7,0.1-1.2,0.9c3,5,7.1,8.9,12.2,11.7c-2.9,0.9-5.8,1.7-8.8,2.5c0-0.2-0.2-0.4-0.4-0.5
								c-6.3-3.3-12.6-6.6-17.6-11.9c-0.6-0.7-1.8,0.2-1.2,0.9c5,5.2,11.1,8.6,17.4,11.9c-4.4,1.1-8.9,1.9-13.4,2.6
								c-6.2-5.9-12.4-11.9-16.1-19.8c-0.4-0.9-1.8-0.3-1.4,0.6c3.6,7.7,9.5,13.7,15.6,19.5c-3,0.4-6,0.8-9,1.1
								c-5.4-4.8-11.5-9.4-14.7-16.1c-0.4-0.8-1.8-0.3-1.4,0.6c3.1,6.4,8.8,11.1,14.1,15.7c-2.6,0.2-5.3,0.4-7.9,0.5
								c-0.1-0.1-0.2-0.3-0.4-0.3c-6.4-2.3-11.8-6.1-17.2-10c-0.8-0.6-1.7,0.6-0.9,1.2c4.9,3.6,9.7,7,15.3,9.4
								c-2.9,0.1-5.9,0.2-8.8,0.1c-0.5-1.3-3-2.4-3.8-3c-3.1-2.2-6.3-4.3-9.6-6.4c-0.8-0.5-1.7,0.7-0.9,1.2c2.2,1.4,4.4,2.8,6.6,4.3
								c0.5,0.3,4.5,2.8,5.9,3.9c-2.7,0-5.5-0.1-8.2-0.2c0,0,0,0,0,0c-4.3-3.3-9-6-14-8.1c-0.9-0.4-1.4,1-0.6,1.4
								c4.2,1.8,8.2,4,11.9,6.6c-5.2-0.3-10.5-0.7-15.7-1.2c-0.1-0.1-0.2-0.2-0.3-0.2c-4.2-1.3-8.4-2.7-12.6-4
								c-0.9-0.3-1.5,1.1-0.6,1.4c2.2,0.7,4.5,1.4,6.7,2.1c-3.4-0.4-6.8-0.8-10.2-1.3C119.9,350.5,119.7,352,120.7,352.1z"/>
						</g>
					</g>
					<g>
						<g>
							<g>
								<g>
									
										<linearGradient id="SVGID_7_" gradientUnits="userSpaceOnUse" x1="212.9164" y1="319.3522" x2="258.9172" y2="261.6844" gradientTransform="matrix(-0.9255 0.3787 0.3787 0.9255 243.4439 -64.3121)">
										<stop  offset="1.165870e-02" style="stop-color:#5692A3"/>
										<stop  offset="0.1678" style="stop-color:#629DA5"/>
										<stop  offset="0.9961" style="stop-color:#A0D6AD"/>
									</linearGradient>
									<path class="st8" d="M121.3,280.9c2.3-0.2,13.5,3.9,18.5,5.7c1.5,0.6,2.7,1.8,3.3,3.3c0.9,2.2,2.2,5.4,3.2,7.1
										c0.6-2.8,0.9-5.7,1.7-8.5c2.7,0.4,5.5,1.5,8.2,2.1c2.8,0.6,5.6,1.3,8.3,2.2c2.4,0.9,6.2,1.7,7.3,3.8
										c1.1,2.2,1.9,5.8,2.6,8.1c0.6-1.7,0.7-3.7,0.9-5.6c0.4-3.3,0.9-2.9,4.3-2.4c4.1,0.5,8.2,1.5,12.2,2.8
										c5.1,1.8,9.4,3.7,13.9,6.2c2.7,1.4,2.6,1.1,2.7,4.2c0.1,2.1,0.4,4.3,0.7,6.4c2.9-0.3,4.7-5.1,5.6-7.4
										c6.2,2,10.3,10.8,13.1,16.1c0.5,1.1,5.6,11.8,5.9,12.4c2.8,6-1.4,13-8,13.3c-3.5,0.2-7.8,0.2-13.1,0
										c-4.6-0.2-25.7-3-31.1-6.6c1.8-2.6,4.4-5.1,5.8-8c-3,0.6-5.9,3.1-8.1,5.1c-0.3,0.2-0.9,0.8-1.6,1.4
										c-1.7,1.5-4.3,1.9-6.3,0.8c-5.5-2.8-15.4-9.3-19.8-12.9c2.4-2.2,4.5-3.4,7-5.6c-3.2,0-6.3,2.5-9.3,3.2
										c-2.2,0.5-1.5,0.9-3.2-0.9c-0.9-1-1.6-2.1-2.5-3.1c3.7-1.7,7-4.5,10.7-6.4c-2.6,1.3-6,1.7-8.7,2.5c-3.8,1-4.2,0.9-6.8-2
										c-4.5-5-9.4-10.5-13-16.1c-2.9-4.4-7.5-10.7-8.1-16C117.3,283.2,117.4,281.2,121.3,280.9z"/>
								</g>
							</g>
							<path class="st4" d="M129.6,292.8c5.7,4.1,11.6,8.1,17.5,11.9c-6.4-1.4-12.5-3.6-18.3-6.6c-0.8-0.4-1.7,0.8-0.8,1.2
								c7,3.6,14.3,6.2,22.1,7.5c0.1,0,0.2,0,0.3,0c2.3,1.4,4.7,2.8,7,4.2c-5.3,1.2-10.6,1.7-16.1,1.4c-0.9-0.1-1.1,1.4-0.1,1.5
								c6,0.3,11.9-0.2,17.8-1.7c0.1,0,0.1-0.1,0.2-0.1c2.3,1.3,4.5,2.5,6.8,3.8c-2,0.8-4,1.5-6,2.5c-2.3,1.2-4.5,2.6-6.7,4
								c-0.8,0.5,0.2,1.6,0.9,1.1c4.4-2.8,8.7-4.6,13.4-6.7c2.8,1.5,5.6,2.9,8.4,4.2c-2.3,1-4.7,1.7-7,2.8c-2.4,1.2-4.6,2.6-6.7,4.2
								c-0.8,0.6,0.2,1.7,0.9,1.1c2.3-1.7,4.8-3.3,7.5-4.5c2.3-1.1,4.8-1.7,7.1-2.8c2.6,1.2,5.2,2.4,7.8,3.5
								c-5,2.5-9.5,5.9-13.9,9.4c-0.7,0.6,0.2,1.7,0.9,1.1c4.6-3.7,9.3-7.3,14.7-9.8c4.6,1.9,9.2,3.6,13.9,5.1
								c-4,3.2-7.7,6.7-11.1,10.6c-0.6,0.7,0.6,1.5,1.2,0.8c3.5-4,7.3-7.7,11.6-10.9c2.7,0.8,5.5,1.6,8.3,2.3
								c-4.1,2.4-7.7,5.3-10.5,9.2c-0.5,0.8,0.7,1.6,1.2,0.8c2.8-4,6.7-7,10.9-9.3c0.1-0.1,0.2-0.1,0.3-0.2c2.8,0.7,5.7,1.3,8.5,1.8
								c-3.2,1.1-6.1,2.9-8.7,5.3c-0.7,0.6,0.3,1.8,0.9,1.1c3.2-3,6.8-4.9,11.1-5.8c2.4,0.4,4.8,0.7,7.2,1c0.9,0.1,1.1-1.4,0.1-1.5
								c-2.4-0.3-4.7-0.6-7-1c-0.1,0-0.2-0.1-0.4-0.1c-0.1,0-0.1,0-0.2,0c-3.5-4.9-5.5-10.5-5.9-16.6c-0.1-0.9-1.5-0.7-1.5,0.2
								c0.4,5.8,2.2,11.2,5.4,16c-3-0.5-6-1.1-8.9-1.8c0.1-0.2,0-0.4-0.1-0.6c-4.1-5.8-8.1-11.7-10.1-18.6c-0.3-0.9-1.7-0.7-1.5,0.2
								c2,6.9,5.9,12.8,9.9,18.6c-4.4-1.1-8.8-2.4-13.1-3.8c-2.8-8.1-5.5-16.3-5.1-25c0-0.9-1.4-1.1-1.5-0.1
								c-0.4,8.5,2.1,16.6,4.8,24.5c-2.8-1-5.7-2-8.5-3.2c-2.6-6.8-5.8-13.7-5.6-21.1c0-0.9-1.4-1.1-1.5-0.1
								c-0.2,7.2,2.7,13.9,5.2,20.4c-2.4-1-4.9-2.1-7.3-3.2c0-0.2,0-0.3-0.2-0.5c-4.6-4.9-7.6-10.8-10.6-16.8
								c-0.4-0.8-1.8-0.2-1.3,0.6c2.7,5.4,5.4,10.7,9.2,15.3c-2.6-1.3-5.3-2.6-7.8-3.9c0.2-1.4-1.5-3.5-2-4.4
								c-1.8-3.4-3.6-6.8-5.5-10.1c-0.5-0.8-1.8-0.2-1.3,0.6c1.3,2.3,2.6,4.6,3.8,6.9c0.3,0.5,2.7,4.5,3.4,6.2
								c-2.4-1.3-4.8-2.6-7.2-4c0,0,0,0,0,0c-2.3-4.9-5.2-9.4-8.6-13.6c-0.6-0.7-1.7,0.2-1.1,0.9c2.9,3.5,5.4,7.3,7.5,11.4
								c-4.5-2.6-9-5.4-13.3-8.3c0-0.1-0.1-0.2-0.2-0.3c-3.1-3.1-6.2-6.2-9.3-9.4c-0.7-0.7-1.8,0.3-1.1,0.9c1.6,1.7,3.3,3.3,4.9,5
								c-2.8-1.9-5.7-3.9-8.5-5.9C129.7,291.1,128.8,292.3,129.6,292.8z"/>
						</g>
					</g>
					<g>
						<g>
							<g>
								<g>
									
										<linearGradient id="SVGID_8_" gradientUnits="userSpaceOnUse" x1="151.2777" y1="291.6848" x2="216.5508" y2="291.6848" gradientTransform="matrix(-0.9255 0.3787 0.3787 0.9255 243.4439 -64.3121)">
										<stop  offset="1.165870e-02" style="stop-color:#5692A3"/>
										<stop  offset="0.1678" style="stop-color:#629DA5"/>
										<stop  offset="0.9961" style="stop-color:#A0D6AD"/>
									</linearGradient>
									<path class="st9" d="M141.8,226.3c2.2,0.6,11.5,8.1,15.6,11.5c1.3,1,2,2.6,2.1,4.2c0.1,2.4,0.3,5.9,0.7,7.8
										c1.5-2.5,2.7-5.1,4.4-7.5c2.4,1.3,4.7,3.3,7.1,4.7c2.4,1.5,4.9,3.1,7.1,4.9c2,1.6,5.3,3.6,5.6,6c0.3,2.4-0.1,6.1-0.3,8.5
										c1.1-1.4,1.9-3.3,2.7-4.9c1.5-3,1.8-2.4,4.9-0.8c3.7,1.9,7.3,4.1,10.5,6.7c4.2,3.3,7.6,6.6,11.1,10.4
										c2,2.2,2.1,1.9,1.2,4.9c-0.6,2-1.1,4.2-1.5,6.2c2.9,0.6,6.1-3.3,7.8-5.1c5.1,3.9,6.1,13.6,7,19.6c0.2,1.2,1.4,13,1.5,13.6
										c0.7,6.6-5.6,11.8-12,10c-3.3-1-7.4-2.4-12.3-4.3c-4.3-1.7-23.3-11.3-27.1-16.4c2.6-1.9,5.8-3.4,8.1-5.7
										c-3.1-0.5-6.6,0.9-9.4,2.2c-0.3,0.1-1.1,0.5-1.9,0.8c-2.2,0.9-4.6,0.3-6.2-1.3c-4.3-4.5-11.4-13.9-14.4-18.7
										c3-1.3,5.4-1.7,8.5-2.9c-3-1-6.7,0.3-9.8,0c-2.2-0.3-1.7,0.4-2.7-1.9c-0.5-1.3-0.8-2.5-1.4-3.8c4.1-0.4,8.1-1.9,12.3-2.5
										c-2.9,0.4-6.2-0.3-9.1-0.5c-3.9-0.3-4.3-0.5-5.8-4.1c-2.6-6.2-5.3-13-7-19.5c-1.3-5.1-3.6-12.6-2.3-17.8
										C137.2,227.1,138,225.2,141.8,226.3z"/>
								</g>
							</g>
							<path class="st4" d="M145.7,240.3c4,5.8,8.2,11.4,12.6,17c-5.5-3.4-10.6-7.5-15-12.3c-0.6-0.7-1.8,0.2-1.2,0.9
								c5.4,5.7,11.5,10.5,18.3,14.4c0.1,0.1,0.2,0.1,0.3,0.1c1.7,2.1,3.4,4.2,5.2,6.3c-5.4-0.6-10.6-1.9-15.6-4
								c-0.9-0.4-1.5,1-0.6,1.3c5.6,2.3,11.3,3.7,17.3,4.3c0.1,0,0.1,0,0.2,0c1.7,2,3.4,3.9,5.2,5.8c-2.2,0.1-4.3,0.1-6.5,0.4
								c-2.6,0.4-5.1,1-7.6,1.6c-0.9,0.2-0.4,1.6,0.5,1.4c5-1.2,9.8-1.5,14.8-1.9c2.1,2.3,4.3,4.5,6.5,6.7c-2.5,0.2-5,0.1-7.5,0.4
								c-2.6,0.3-5.2,1-7.7,1.7c-0.9,0.3-0.4,1.7,0.5,1.4c2.8-0.9,5.6-1.5,8.5-1.8c2.5-0.2,5.1,0,7.6-0.4c2,2,4.1,3.9,6.2,5.9
								c-5.6,0.7-10.9,2.5-16.2,4.3c-0.9,0.3-0.4,1.7,0.5,1.4c5.6-2,11.2-3.8,17.1-4.4c3.7,3.3,7.5,6.4,11.4,9.4
								c-4.9,1.7-9.5,3.8-14,6.4c-0.8,0.5,0.1,1.7,0.9,1.2c4.6-2.7,9.5-4.8,14.5-6.5c2.3,1.7,4.7,3.3,7.1,4.9
								c-4.6,0.9-9.1,2.5-12.9,5.3c-0.8,0.5,0.1,1.7,0.9,1.2c4-2.9,8.6-4.4,13.4-5.2c0.1,0,0.2-0.1,0.3-0.1c2.4,1.6,4.9,3.1,7.4,4.5
								c-3.4,0-6.7,0.7-9.9,2.1c-0.9,0.4-0.3,1.8,0.5,1.4c4-1.8,8.1-2.4,12.4-1.9c2.1,1.1,4.3,2.3,6.5,3.3c0.9,0.4,1.5-0.9,0.6-1.3
								c-2.1-1-4.2-2.1-6.3-3.2c-0.1-0.1-0.2-0.1-0.3-0.2c-0.1,0-0.1-0.1-0.2-0.1c-1.7-5.8-1.7-11.7-0.1-17.6
								c0.3-0.9-1.2-1.1-1.5-0.2c-1.6,5.6-1.6,11.3-0.2,16.8c-2.6-1.5-5.2-3-7.8-4.7c0.1-0.2,0.2-0.4,0.1-0.6
								c-1.9-6.9-3.8-13.7-3.4-20.9c0.1-0.9-1.4-1.2-1.5-0.2c-0.4,7.2,1.3,14,3.2,20.9c-3.8-2.5-7.5-5.1-11.1-7.9
								c0.1-8.6,0.2-17.2,3.5-25.3c0.4-0.9-1-1.5-1.3-0.6c-3.2,7.9-3.5,16.3-3.6,24.7c-2.4-1.9-4.7-3.8-6.9-5.8
								c-0.2-7.3-1-14.8,1.7-21.8c0.3-0.9-1-1.5-1.3-0.6c-2.6,6.7-2.1,14-1.9,21c-2-1.8-3.9-3.5-5.8-5.4c0.1-0.1,0.1-0.3,0-0.5
								c-2.7-6.2-3.6-12.7-4.4-19.4c-0.1-0.9-1.6-0.8-1.5,0.1c0.7,6,1.5,11.9,3.6,17.5c-2.1-2.1-4.1-4.2-6.1-6.3
								c0.6-1.3-0.3-3.8-0.4-4.9c-0.5-3.8-1.2-7.6-1.9-11.4c-0.2-0.9-1.6-0.8-1.5,0.1c0.5,2.6,0.9,5.2,1.3,7.8
								c0.1,0.6,1,5.2,1.2,6.9c-1.9-2-3.7-4-5.5-6.1c0,0,0,0,0,0c-0.5-5.4-1.8-10.6-3.6-15.7c-0.3-0.9-1.7-0.4-1.4,0.5
								c1.6,4.3,2.7,8.7,3.3,13.2c-3.4-4-6.7-8.1-9.9-12.2c0-0.1,0-0.2-0.1-0.4c-1.9-4-3.8-7.9-5.7-11.9c-0.4-0.8-1.8-0.3-1.4,0.5
								c1,2.1,2,4.2,3,6.3c-2-2.8-4.1-5.6-6-8.4C146.3,238.6,145.1,239.5,145.7,240.3z"/>
						</g>
					</g>
				</g>
			</g>
			<path class="st10" d="M423.8,412.4c-2.1,0-4.2,0-6.2,0.1c-10.4-2.3-73.5-4.1-150-4.1c-83.6,0-151.5,2.1-151.5,4.8
				c0,0.2,0.5,0.4,1.4,0.6c-18.7,0.9-30.7,2.2-30.7,3.8c0,2.6,35.3,4.8,78.9,4.8c41.9,0,76.2-2,78.8-4.5c7.5,0,15.3,0.1,23.1,0.1
				c54.8,0,102.7-0.9,129.3-2.3c1.3,1.5,12.8,2.7,26.8,2.7c14.9,0,26.9-1.3,26.9-3C450.7,413.7,438.6,412.4,423.8,412.4z"/>
			<g>
				<g>
					<linearGradient id="SVGID_9_" gradientUnits="userSpaceOnUse" x1="305.9251" y1="424.4895" x2="305.9251" y2="381.1445">
						<stop  offset="7.131410e-03" style="stop-color:#D7DFF2"/>
						<stop  offset="0.1964" style="stop-color:#D3DDF1"/>
						<stop  offset="0.3829" style="stop-color:#C7D7EF"/>
						<stop  offset="0.5684" style="stop-color:#B3CEEC"/>
						<stop  offset="0.7534" style="stop-color:#98C0E7"/>
						<stop  offset="0.9362" style="stop-color:#74AFE1"/>
						<stop  offset="1" style="stop-color:#66A8DE"/>
					</linearGradient>
					<rect x="293" y="363.6" class="st11" width="25.8" height="42"/>
					<linearGradient id="SVGID_10_" gradientUnits="userSpaceOnUse" x1="306.3506" y1="414.9849" x2="306.3506" y2="371.6396">
						<stop  offset="7.131410e-03" style="stop-color:#D7DFF2"/>
						<stop  offset="0.1276" style="stop-color:#B8D0EC"/>
						<stop  offset="0.27" style="stop-color:#9AC1E7"/>
						<stop  offset="0.4213" style="stop-color:#83B6E3"/>
						<stop  offset="0.5834" style="stop-color:#73AEE0"/>
						<stop  offset="0.764" style="stop-color:#69A9DF"/>
						<stop  offset="1" style="stop-color:#66A8DE"/>
					</linearGradient>
					<path class="st12" d="M362.2,410.8H250.5v-0.3c0-4.7,3.8-8.4,8.4-8.4h94.8c4.7,0,8.4,3.8,8.4,8.4V410.8z"/>
				</g>
				<linearGradient id="SVGID_11_" gradientUnits="userSpaceOnUse" x1="306.3506" y1="203.6281" x2="306.3506" y2="342.2129">
					<stop  offset="7.131410e-03" style="stop-color:#D7DFF2"/>
					<stop  offset="0.1958" style="stop-color:#C7D7EF"/>
					<stop  offset="0.5628" style="stop-color:#9EC3E8"/>
					<stop  offset="1" style="stop-color:#66A8DE"/>
				</linearGradient>
				<path class="st13" d="M399.7,388.2H213c-2.9,0-5.3-2.4-5.3-5.3V243.8c0-2.9,2.4-5.3,5.3-5.3h186.7c2.9,0,5.3,2.4,5.3,5.3v139.1
					C405,385.9,402.6,388.2,399.7,388.2z"/>
				<linearGradient id="SVGID_12_" gradientUnits="userSpaceOnUse" x1="306.3506" y1="317.2566" x2="306.3506" y2="236.1377">
					<stop  offset="1.963140e-03" style="stop-color:#D7DFF2"/>
					<stop  offset="0.4855" style="stop-color:#E9ECF1"/>
					<stop  offset="1" style="stop-color:#F1F1F1"/>
				</linearGradient>
				<rect x="215.2" y="245.8" class="st14" width="182.3" height="120.6"/>
				<path class="st15" d="M312.9,378c-0.7,3.6-4.2,6-7.9,5.3c-3.6-0.7-6-4.2-5.3-7.9c0.7-3.6,4.2-6,7.9-5.3
					C311.3,370.8,313.7,374.4,312.9,378z"/>
				<rect x="215.2" y="346.8" class="st15" width="182.2" height="19.6"/>
				<g>
					<text transform="matrix(1 0 0 1 243.0527 306.1828)" class="st4 st16 st17">Welcome</text>
				</g>
			</g>
			<g>
				<path class="st18" d="M292.8,202.3c1.7,6.4-1.8,14.1-4.7,20c0,0,16.4,11.7,37,0.9l-1.7-4.5c-2-4.9-2.6-10.2-1.7-15.4l3.5-19.4
					c0.8-4.5-1.9-8.9-6.2-10.3l-4.7-1.5l-1.5-0.5c-1.7-0.5-3.5-0.8-5.4-0.8h-1.9c-2.8,0-5.7,0.7-8.2,2l0,0l-4.4,2.3
					c-3.8,2-5.7,6.3-4.6,10.4L292.8,202.3z"/>
				<path class="st18" d="M321.4,174.6c0,0,2,0.4,4,2.4c1.8,1.8,17.9,30.2,17.9,30.2c0.6,3.4-11.2,5.3-11.2,5.3l-10.6-17.8
					L321.4,174.6z"/>
				<path class="st19" d="M340.4,204.5c-3.8,0-7.4,1.2-10.3,3.7c-0.3,0.2,0.1,0.6,0.4,0.4c2.8-2.4,6.2-3.6,9.9-3.5
					C340.7,205,340.7,204.5,340.4,204.5z"/>
				<path class="st18" d="M293.8,174.6c0,0-2,0.4-4,2.4c-1.8,1.8-17.9,30.2-17.9,30.2c-0.6,3.4,11.2,5.3,11.2,5.3l10.6-17.8
					L293.8,174.6z"/>
				<path class="st19" d="M285.8,208.5c-2.7-3-6.6-4.6-10.6-4.2c-0.3,0-0.3,0.6,0,0.5c3.9-0.4,7.6,1.1,10.3,4
					C285.6,209.1,286,208.7,285.8,208.5z"/>
				<polygon class="st4" points="325.1,223.2 336.5,223.2 318.2,239.1 300.7,240.4 277.1,222.6 290.6,222.2 				"/>
				<polygon class="st4" points="325.1,223.2 336.5,223.2 318.2,239.1 300.7,240.4 277.1,222.6 290.6,222.2 				"/>
				<g>
					<linearGradient id="SVGID_13_" gradientUnits="userSpaceOnUse" x1="291.2218" y1="193.6345" x2="292.3249" y2="193.6345">
						<stop  offset="1.963140e-03" style="stop-color:#D7DFF2"/>
						<stop  offset="0.4855" style="stop-color:#E9ECF1"/>
						<stop  offset="1" style="stop-color:#F1F1F1"/>
					</linearGradient>
					<path class="st20" d="M291.9,185.6c0-0.3-0.5-0.3-0.5,0c-0.3,5.4-0.2,10.7,0.4,16.1c0,0.3,0.6,0.3,0.5,0
						C291.7,196.3,291.6,191,291.9,185.6z"/>
					
						<linearGradient id="SVGID_14_" gradientUnits="userSpaceOnUse" x1="284.7445" y1="193.6345" x2="285.8477" y2="193.6345" gradientTransform="matrix(-1 0 0 1 607.5643 0)">
						<stop  offset="1.963140e-03" style="stop-color:#D7DFF2"/>
						<stop  offset="0.4855" style="stop-color:#E9ECF1"/>
						<stop  offset="1" style="stop-color:#F1F1F1"/>
					</linearGradient>
					<path class="st21" d="M322.1,185.6c0-0.3,0.5-0.3,0.5,0c0.3,5.4,0.2,10.7-0.4,16.1c0,0.3-0.6,0.3-0.5,0
						C322.3,196.3,322.4,191,322.1,185.6z"/>
				</g>
				<path class="st22" d="M306.6,175.5L306.6,175.5c2,0,3.6-1.6,3.6-3.6v-7.3c0-0.5-0.4-1-1-1h-5.2c-0.5,0-1,0.4-1,1v7.3
					C303,173.9,304.6,175.5,306.6,175.5z"/>
				<path class="st23" d="M306.6,173L306.6,173c2,0,3.6-1.6,3.6-3.6v-7.3c0-0.5-0.4-1-1-1h-5.2c-0.5,0-1,0.4-1,1v7.3
					C303,171.3,304.6,173,306.6,173z"/>
				<g>
					<path class="st22" d="M320,159.7c-0.5,2.3-2.3,3.1-3.9,3.5c-0.7,1.5-1.8,3.1-3,4.3c-1.3,1.5-2.9,2.6-4.8,3.1l-0.2,0
						c-0.1,0-0.2,0.1-0.3,0.1c-0.1,0-0.2,0-0.2,0c-0.1,0-0.1,0-0.2,0c-0.1,0-0.3,0-0.4,0c-0.2,0-0.3,0-0.4,0c-0.1,0-0.1,0-0.2,0
						c-0.1,0-0.2,0-0.2,0c-0.1,0-0.2-0.1-0.3-0.1c-0.1,0-0.1,0-0.2,0c-1.9-0.5-3.5-1.6-4.8-3.1c-1.1-1.1-2-2.4-2.7-3.7
						c-0.1-0.2-0.2-0.4-0.3-0.6c-0.5-0.1-1-0.3-1.5-0.5c-1.1-0.5-2.1-1.4-2.5-3c-0.3-1.3-0.1-2.9,0.5-3.8c0.3-0.4,0.6-0.6,1.1-0.6
						c0.5,0,1,0.1,1.5,0.4c0.7-3.1,2.3-6.4,4.3-8.6c0.8-1.1,1.8-1.8,2.9-2.3c0.6-0.3,1.1-0.5,1.7-0.5c0.4,0,0.8-0.1,1.2,0
						c0.4,0,0.8,0,1.2,0c0.6,0,1.2,0.2,1.7,0.5c1.1,0.4,2,1.2,2.9,2.3c2,2.3,3.6,5.5,4.3,8.6c0.2-0.1,0.4-0.2,0.7-0.3
						c0.3-0.1,0.6-0.1,0.8-0.1C319.9,155.4,320.4,157.8,320,159.7z"/>
				</g>
				<g>
					<path class="st24" d="M320.3,147.5c-2.1-0.2-4.1-2.5-5.7-3.8c-1.8-1.5-3.5-2-5.7-2.2c-0.9-0.1-1.9-0.3-2.9-0.1
						c-1.2,0.2-1.8,0.9-3,1c-3.2,0.2-4.4,0.1-6.3,2.8c-1.4,2-2.8,4.5-5.1,5.6c0.5,0,2.7-0.3,3.1,0c0.4,0.4-0.1,1.9-0.1,2.6
						c0.1,1.5,0.7,2.8,1.6,4c0.3,2.2,1,4.3,1.8,6.3c-0.1-4,0.3-8.7,2.5-12.2c0.2,1,0.1,1.9,0.2,2.9c1.6-1.3,2.7-3,4.1-4.4
						c1.1,1.6,2.1,3,3.9,4c0.1-1.6,0.7-3,1.1-4.6c0.9,1.3,1.5,2.8,2.4,4.1c1,1.5,2.3,2.9,2.9,4.6c0.9,2.3,0.7,5.3,0.4,7.8
						c0.8-1.9,1.8-3.4,2.2-5.5c0.3-1.4,0.4-3,0.4-4.4c0-2.7-0.5-5.2-0.6-7.9C318.6,147.9,319.4,148,320.3,147.5z"/>
				</g>
				<g>
					<g>
						<g>
							<path class="st25" d="M301.1,156.9c0.1,0,0.2-0.1,0.3-0.2c0.9-1.8,2.6-1,2.6-1c0.2,0.1,0.3,0,0.4-0.2c0.1-0.2,0-0.3-0.2-0.4
								c-0.8-0.4-2.5-0.5-3.4,1.3c-0.1,0.2,0,0.3,0.1,0.4C301,156.9,301,156.9,301.1,156.9z"/>
						</g>
					</g>
					<g>
						<g>
							<path class="st25" d="M310.2,156.1c0.1,0.1,0.2,0.1,0.3,0.1c1.6-0.6,2.2,0.7,2.2,0.8c0.1,0.1,0.2,0.2,0.3,0.1
								c0.1-0.1,0.2-0.2,0.1-0.3c-0.3-0.6-1.3-1.7-2.9-1.1C310.2,155.7,310.1,155.9,310.2,156.1
								C310.2,156.1,310.2,156.1,310.2,156.1z"/>
						</g>
					</g>
					<g>
						<g>
							<path class="st25" d="M306.5,165.4c0-0.1-0.1-0.2-0.3-0.2c-2-0.2-1.9-2-1.9-2.1c0-0.2-0.1-0.3-0.3-0.3
								c-0.2,0-0.3,0.1-0.3,0.3c-0.1,0.8,0.4,2.5,2.4,2.8c0.2,0,0.3-0.1,0.3-0.3C306.5,165.5,306.5,165.5,306.5,165.4z"/>
						</g>
					</g>
					<g>
						<path class="st25" d="M308,164.5c0.2,0,0.5-0.1,0.6-0.2c0.6-0.4,0.8-1.3,0.4-2.5l-0.8-3.8c0-0.1-0.2-0.2-0.3-0.2
							c-0.1,0-0.2,0.2-0.2,0.3l0.8,3.8c0.3,1.1,0.1,1.7-0.2,1.9c-0.3,0.2-0.8,0.1-1.2-0.3c-0.1-0.1-0.3-0.1-0.4,0
							c-0.1,0.1-0.1,0.3,0,0.4C307.2,164.3,307.6,164.5,308,164.5z"/>
					</g>
					<path class="st25" d="M312.2,158.9c0,0.6-0.5,1-1,0.9c-0.5,0-0.9-0.5-0.8-1.1c0-0.6,0.5-1,1-0.9
						C311.9,157.9,312.3,158.3,312.2,158.9z"/>
					<path class="st25" d="M304.1,158.9c0,0.6-0.5,1-1,0.9c-0.5,0-0.9-0.5-0.8-1.1c0-0.6,0.5-1,1-0.9
						C303.7,157.9,304.1,158.3,304.1,158.9z"/>
				</g>
				<path class="st22" d="M310.4,221.5l-0.9-4.7c-0.2-1,0.3-1.9,1.2-2.3l1-0.5c1.1-0.5,2.4-0.4,3.4,0.4l3.6,2.8
					c0.6,0.4,1.3,0.5,1.9,0.1l0.2-0.1l2.8-1.6c0,0,15.3-12.8,19.7-8.3c2.1,3.2,0.4,7.4-3.2,8.4l-14,3.6l-3.8,1l-2.5,0.6
					c-0.5,0.1-1,0.1-1.5,0l-5.1-1.6c-0.3-0.1-0.7,0.1-0.8,0.5l-0.6,1.8C311.5,222.3,310.5,222.2,310.4,221.5z"/>
				<path class="st22" d="M304.9,221.5l0.9-4.7c0.2-1-0.3-1.9-1.2-2.3l-1-0.5c-1.1-0.5-2.4-0.4-3.4,0.4l-3.6,2.8
					c-0.6,0.4-1.3,0.5-1.9,0.1l-0.2-0.1l-2.8-1.6c0,0-15.3-12.8-19.7-8.3c-2.1,3.2-0.4,7.4,3.2,8.4l14,3.6l3.8,1l2.5,0.6
					c0.5,0.1,1,0.1,1.5,0l5.1-1.6c0.3-0.1,0.7,0.1,0.8,0.5l0.6,1.8C303.7,222.3,304.7,222.2,304.9,221.5z"/>
				<g>
					<g>
						<linearGradient id="SVGID_15_" gradientUnits="userSpaceOnUse" x1="306.8054" y1="230.1617" x2="306.8054" y2="183.0475">
							<stop  offset="0" style="stop-color:#66A8DE"/>
							<stop  offset="0.4372" style="stop-color:#9EC3E8"/>
							<stop  offset="0.8042" style="stop-color:#C7D7EF"/>
							<stop  offset="0.9929" style="stop-color:#D7DFF2"/>
						</linearGradient>
						<rect x="285.4" y="199.9" class="st26" width="42.8" height="27.6"/>
						<linearGradient id="SVGID_16_" gradientUnits="userSpaceOnUse" x1="306.8055" y1="231.2939" x2="306.8055" y2="226.207">
							<stop  offset="0" style="stop-color:#66A8DE"/>
							<stop  offset="0.4372" style="stop-color:#9EC3E8"/>
							<stop  offset="0.8042" style="stop-color:#C7D7EF"/>
							<stop  offset="0.9929" style="stop-color:#D7DFF2"/>
						</linearGradient>
						<path class="st27" d="M328.9,227.4h-44.2c-0.6,0-1.1,0.5-1.1,1.1l0,0c0,0.6,0.5,1.1,1.1,1.1h44.2c0.6,0,1.1-0.5,1.1-1.1l0,0
							C330,227.9,329.5,227.4,328.9,227.4z"/>
					</g>
					<linearGradient id="SVGID_17_" gradientUnits="userSpaceOnUse" x1="307.0635" y1="227.5246" x2="307.0635" y2="212.4648">
						<stop  offset="0" style="stop-color:#66A8DE"/>
						<stop  offset="0.4372" style="stop-color:#9EC3E8"/>
						<stop  offset="0.8042" style="stop-color:#C7D7EF"/>
						<stop  offset="0.9929" style="stop-color:#D7DFF2"/>
					</linearGradient>
					<path class="st28" d="M310.8,215.6c0,2.1-1.7,3.7-3.7,3.7c-2.1,0-3.7-1.7-3.7-3.7c0-2.1,1.7-3.7,3.7-3.7
						C309.1,211.9,310.8,213.5,310.8,215.6z"/>
				</g>
				<g>
					<path class="st4" d="M269.4,232.4c0.7,3.2,3.2,5.5,6.2,6.1c0.3,0.1,0.5,0.1,0.8,0.1c10.3,2.8,21.7,4.8,33.9,6.2
						c3.3,0.4,6.7,0.7,10.2,0.9l6,5.6c0.1,0,0.1,0.1,0.2,0.1c2.7,2.1,6.6-0.3,6-3.7l-0.3-2c0,0,0,0,0,0c-0.7-2-2.5-3.3-4.5-3.7
						l-6.2-1.1c-3-0.9-5.9-1.9-8.8-2.8c-12.4-4.2-23.5-8.6-32.1-14.6c-1.6-0.7-3.4-1-5.2-0.6C271.1,223.8,268.4,228.1,269.4,232.4z"
						/>
					<path class="st25" d="M310.3,244.8c3.3,0.4,6.7,0.7,10.2,0.9l6,5.6c0.1,0,0.1,0.1,0.2,0.1c2.7,2.1,6.6-0.3,6-3.7l-0.3-2
						c0,0,0,0,0,0c-0.7-2-2.5-3.3-4.5-3.7l-6.2-1.1c-3-0.9-5.9-1.9-8.8-2.8L310.3,244.8z"/>
					<path class="st4" d="M288.6,250.9c0.1-0.1,0.1-0.1,0.2-0.1l6.1-5.6c3.1-0.3,6.1-0.7,9.1-1c13.3-1.5,25.5-3.4,34.4-6
						c0.3,0,0.5-0.1,0.8-0.1c3-0.6,5.5-2.9,6.2-6.1c1-4.3-1.7-8.6-6.1-9.6c-1.8-0.4-3.6-0.2-5.2,0.6c-9.2,5.9-20,10.7-32,14.7
						c-3,1-6.1,2-9.3,2.9l0,0l-5.3,1c-2,0.4-3.8,1.8-4.5,3.7c0,0,0,0,0,0l-0.3,2C282.1,250.6,286,253,288.6,250.9z"/>
					<path class="st25" d="M288.6,250.9c0.1-0.1,0.1-0.1,0.2-0.1l6.1-5.6c3.1-0.3,6.1-0.7,9.1-1c-0.5-1.7-1.3-4.3-1.9-6.6
						c-3,1-6.1,2-9.3,2.9l0,0l-5.3,1c-2,0.4-3.8,1.8-4.5,3.7c0,0,0,0,0,0l-0.3,2C282.1,250.6,286,253,288.6,250.9z"/>
				</g>
				<path class="st19" d="M312.7,172.1c-0.1-0.3-0.6-0.2-0.5,0.1c3,7.5-13.7,8.8-11.6-0.1c0.1-0.3-0.4-0.5-0.5-0.1
					C297.7,181.8,316,180.4,312.7,172.1z"/>
			</g>
			<g>
				<g>
					<g>
						<circle class="st15" cx="208.7" cy="409.2" r="4.9"/>
						<path class="st15" d="M181.5,409.2c0,2.7,2.2,4.9,4.9,4.9c2.7,0,4.9-2.2,4.9-4.9c0-2.7-2.2-4.9-4.9-4.9
							C183.8,404.3,181.5,406.5,181.5,409.2z"/>
						<circle class="st15" cx="166.3" cy="409.2" r="4.9"/>
						<g>
							<linearGradient id="SVGID_18_" gradientUnits="userSpaceOnUse" x1="184.7851" y1="383.3116" x2="188.9381" y2="383.3116">
								<stop  offset="7.131410e-03" style="stop-color:#D7DFF2"/>
								<stop  offset="0.1958" style="stop-color:#C7D7EF"/>
								<stop  offset="0.5628" style="stop-color:#9EC3E8"/>
								<stop  offset="1" style="stop-color:#66A8DE"/>
							</linearGradient>
							<path class="st29" d="M186.9,409.1L186.9,409.1c1.1,0,2.1-0.9,2.1-2.1v-49.4h-4.2V407C184.8,408.1,185.7,409.1,186.9,409.1z"
								/>
							
								<rect x="198.9" y="316.3" transform="matrix(-1 -1.224647e-16 1.224647e-16 -1 401.9399 662.2462)" class="st30" width="4.2" height="29.6"/>
							<linearGradient id="SVGID_19_" gradientUnits="userSpaceOnUse" x1="169.333" y1="331.1231" x2="173.4862" y2="331.1231">
								<stop  offset="7.131410e-03" style="stop-color:#D7DFF2"/>
								<stop  offset="0.1958" style="stop-color:#C7D7EF"/>
								<stop  offset="0.5628" style="stop-color:#9EC3E8"/>
								<stop  offset="1" style="stop-color:#66A8DE"/>
							</linearGradient>
							<polygon class="st31" points="169.3,345.9 173.5,345.9 173.5,316.3 169.3,316.3 							"/>
							<linearGradient id="SVGID_20_" gradientUnits="userSpaceOnUse" x1="181.7284" y1="358.1688" x2="192.0529" y2="358.1688">
								<stop  offset="7.131410e-03" style="stop-color:#D7DFF2"/>
								<stop  offset="0.1958" style="stop-color:#C7D7EF"/>
								<stop  offset="0.5628" style="stop-color:#9EC3E8"/>
								<stop  offset="1" style="stop-color:#66A8DE"/>
							</linearGradient>
							<polygon class="st32" points="181.7,364.5 192.1,364.5 192.1,351.9 181.7,351.9 							"/>
						</g>
						<path class="st15" d="M168.4,356.8h35.9c3.7,0,6.7-3,6.7-6.7l0,0c0-3.7-3-6.7-6.7-6.7h-35.9c-3.7,0-6.7,3-6.7,6.7l0,0
							C161.6,353.8,164.6,356.8,168.4,356.8z"/>
						<path class="st15" d="M171.6,319.2h32.6c3.7,0,6.7-3,6.7-6.7l0,0c0-3.7-3-6.7-6.7-6.7h-32.6c-3.7,0-6.7,3-6.7,6.7l0,0
							C164.9,316.1,167.9,319.2,171.6,319.2z"/>
						<linearGradient id="SVGID_21_" gradientUnits="userSpaceOnUse" x1="164.3981" y1="401.4508" x2="210.3142" y2="401.4508">
							<stop  offset="7.131410e-03" style="stop-color:#D7DFF2"/>
							<stop  offset="0.1958" style="stop-color:#C7D7EF"/>
							<stop  offset="0.5628" style="stop-color:#9EC3E8"/>
							<stop  offset="1" style="stop-color:#66A8DE"/>
						</linearGradient>
						<path class="st33" d="M171.2,392.9h32.4c3.7,0,6.8,3,6.8,6.8v8.4c0,1.1-0.9,1.9-1.9,1.9l0,0c-1.1,0-1.9-0.9-1.9-1.9v-7.5
							c0-2.1-1.7-3.8-3.8-3.8h-30.6c-2.1,0-3.8,1.7-3.8,3.8v7.5c0,1.1-0.9,1.9-1.9,1.9h0c-1.1,0-1.9-0.8-1.9-1.9l-0.1-8.3
							C164.4,396,167.4,392.9,171.2,392.9z"/>
					</g>
					<g>
						<path class="st18" d="M180.3,287.5l-3.3,21.9c-0.6,3.9-4.5,6.5-8.3,5.5l-21.5-5.8l0.5-5.2l20.1,1.8l1.9-15.8
							c0.5-4.6,3.4-8.6,7.5-10.7l0,0C180.6,277.7,180.8,283.9,180.3,287.5z"/>
						<g>
							<g>
								<path class="st15" d="M199,289.8c0.4-0.1,0.8-0.3,1.2-0.5C200,289.7,199.6,290,199,289.8z"/>
							</g>
							<g>
								<path class="st15" d="M177.5,263.8c0.4-2.3,0.4-4.7,0.9-7c0.5-2.2,1.5-4.1,2.6-5.9c0.7-1.2,1.8-2.2,2.8-2.9
									c0.8-0.5,2.6-1.3,3.4-0.5l5.3,0.6c1.7-0.5,3.8,0.5,5.2,1.6c2.1,1.6,3.1,4,4.2,6.7c0.9,2.2,1.1,4.3,1,6.7
									c-0.1,1.9-0.9,3.4-0.8,5.3c0,1.9,0.7,3.6,1.7,5c0.8,0.9,1.6,1.9,2.5,2.5c0.6,0.4,1.4,0.6,1.9,1.1c-1.1,0.4-2.9-0.5-3.9-0.9
									c-0.9-0.3-1.6-1.1-2.5-1.5c0.3,1.2,0.9,2.1,1,3.5c0.2,2.1-0.5,3.4-1.5,4.9c-1.4,2.2-3.4,3.5-5.2,5.1c-1,0.9-2.3,2.2-3.5,2.9
									c0.5-1.2-0.3-4-0.5-5c-0.1-1.1-0.6-1.9-0.6-3c0-0.9,0-1.8,0.1-2.7c-2.1,3.5-5.5,7.9-3.9,12.7c-1.4-1.2-2.7-2.9-3.9-4.5
									c-1.3-1.6-2.7-3.2-3.8-4.9c-2-3.1-2.9-6.6-3.1-10.6C176.8,270.2,176.9,267,177.5,263.8z"/>
							</g>
						</g>
						<path class="st18" d="M192.3,324.3l-22.3,0.4l6.6-11.2c-1.4-8.2-3-20.5-3.3-28.1c-0.1-3.6,2.3-6.6,5.4-6.7l21.2-0.9
							c3.3-0.1-0.2,2.3-0.4,6.1c-0.2,3.8,1.8,8.6,2,11.8c0.2,3.9-2,2.6-2.8,8.7c-0.1,1.1-0.2,2.3-0.1,3.4c0.1,4.7,1.2,9.4,3,13.8
							l0.9,2.4l-9.9,0.2c0,0,0,0.1-0.1,0.1L192.3,324.3z"/>
						<path class="st19" d="M199.1,300.7c0-0.1,0.1-0.2,0.2-0.2c1.2-2,2.5-4.2,1.8-6.7c-0.5-1.7-1.5-3.1-1.9-4.8
							c-0.1-0.3,0.4-0.5,0.5-0.1c0.5,2.2,2.1,4.1,2.1,6.4c0,2.1-1.1,4-2.1,5.7c0,0-0.1,0-0.1,0.1c-0.8,4.8-1.4,9.6,0.8,14.1
							c0.2,0.3-0.3,0.6-0.5,0.3C197.6,310.6,198.3,305.6,199.1,300.7z"/>
						<g>
							<path class="st15" d="M197.7,391.2c0,0-2.6,18.7-7.3,14.6c-0.3,1.5-0.7,2.7-1.3,3.7c-2.1,2.9,4.7,4,7.3,2.7
								c2.6-1.3,1.1-11.3,1.1-11.3S201.2,394.8,197.7,391.2z"/>
							<path class="st4" d="M172.6,323.9l27.7,0.2c4.7,0,8.6,4.5,8.6,9.8c0,2.6-1,5-2.5,6.8c0,0.1-0.1,0.2-0.1,0.4
								c-1.7,3.1-4.8,5.3-8.9,6.7c-0.2,0.1-2,0.8-2.7,1l-10.9-2.8l0-0.1c0.1-0.9,0.4-1.7,0.8-2.4l-11.9-0.1c-4.7,0-8.6-4.5-8.6-9.8
								C163.9,328.3,167.8,323.9,172.6,323.9z"/>
							<path class="st34" d="M198.4,368.8c0,1.1,0,2.3-0.1,3.5c-0.1,6.2-0.4,12.7-0.7,18.9c0,0-2.1,15.2-6,15.2
								c-0.4,0-0.9-0.2-1.4-0.6c0.3-3.2,0.7-6.2,1.2-8.9c0.1-0.6,0.2-1.2,0.4-1.8c0.1-0.3,0.1-0.7,0.2-1c0.2-0.9,0.5-1.9,0.8-2.9
								c0-0.1-0.7-2.4-1.7-6.1c-0.9-3.3-2.1-7.8-3.2-12.8c-0.1-0.5-0.2-1-0.4-1.5c-1.5-6.7-3-14.2-3.7-21.3
								c-0.7-5.9-0.9-11.6-0.3-16.2l10.9,2.8c-0.2,0.1-0.3,0.1-0.3,0.1C198,337,198.7,351.5,198.4,368.8z"/>
							<path class="st4" d="M198.4,368.8c0,1.1,0,2.3-0.1,3.5H188c-0.1-0.5-0.2-1-0.4-1.5c-1.5-6.7-3-14.2-3.7-21.3
								c-0.7-5.9-0.9-11.6-0.3-16.2l10.9,2.8c-0.2,0.1-0.3,0.1-0.3,0.1C198,337,198.7,351.5,198.4,368.8z"/>
							<path class="st35" d="M192.9,391.2c-0.3,0.9-0.6,1.8-0.8,2.9C192.4,393.1,192.6,392.1,192.9,391.2L192.9,391.2z"/>
							<path class="st34" d="M196.3,332.2c0.3,10.9-8.5,24.6-18.3,38.7c-0.3,0.4-0.6,0.9-1,1.4c-3.7,5.3-7.5,10.6-11,15.8l-3.6-3.2
								l4.5-12.5l3-8.2l11.7-32.4c1.4-3.9,4.7-6.4,8.4-6.4c1.7,0,3.2,0.8,4.4,2C195.6,328.6,196.3,330.3,196.3,332.2z"/>
							<path class="st15" d="M158.2,402.7c2.5-3,6-6.9,7.8-14.7c-1.7,3.2-3.3,6.2-4.8,8.3c-2,2.8-5.9-0.1-4.3-3.3
								c2-4.1,5.5-8.3,5.5-8.3l0,0c-5.6,5.4-7.7,8.1-9.3,14.9C152.1,403.5,155.8,405.6,158.2,402.7z"/>
							<path class="st34" d="M161.2,396.3c1.5-2.1,3.1-5.1,4.8-8.3l-3.6-3.2c0,0-3.5,4.1-5.5,8.3
								C155.4,396.2,159.3,399.1,161.2,396.3z"/>
						</g>
						<g>
							<path class="st19" d="M188.2,291.5c-3.4-0.8-6-3.2-6.9-6.5c0.7-0.3,1.3-0.7,1.9-1.2c0.1-0.1,0-0.2-0.1-0.3
								c0-0.1,0-0.2-0.1-0.2c-0.5-0.1-0.9-0.3-1.3-0.5c-0.2-0.1-0.8-0.4-1-0.7c0.7-0.3,1.2-0.9,1.8-1.3c0.9-0.7,1.7-1.4,2.5-2.2
								c0.2-0.2-0.1-0.4-0.3-0.3c-0.7,0.6-1.4,1.2-2.1,1.8c-0.6,0.5-1.3,1.2-2,1.6c-0.1,0-0.2,0-0.3,0.1c0,0-0.1,0-0.1,0
								c-0.2,0.1-0.1,0.4,0.1,0.4c0,0,0,0,0,0c0.2,0.3,0.6,0.5,0.8,0.7c0.5,0.3,1.1,0.6,1.7,0.7c-0.5,0.5-1.2,0.9-1.9,1.1
								c-0.2,0.1-0.1,0.3,0,0.3c1,3.4,3.7,6,7.2,6.8C188.3,291.9,188.4,291.5,188.2,291.5z"/>
							<path class="st19" d="M197,282c-1.6-1.1-3-2.5-4.1-4.1c-0.1-0.2-0.5,0-0.3,0.2c1.1,1.6,2.5,2.9,4.1,4.1c0,0-0.1,0-0.1,0.1
								c-0.3,0.4-1.4,0.5-1.9,0.6c-0.7,0.1-1.4,0.2-2.1,0.3c-0.2,0-0.2,0.3-0.1,0.3c0,0,0,0.1,0,0.1c0.5,0.7,1.2,1.3,2,1.8
								c-1,2.5-2.8,4.6-5.3,5.8c-0.2,0.1,0,0.4,0.2,0.3c2.5-1.3,4.4-3.4,5.5-6.1c0-0.1,0-0.1,0-0.2c0-0.1,0-0.1-0.1-0.1
								c-0.8-0.4-1.4-1-1.9-1.7c0.8-0.1,1.6-0.2,2.3-0.3c0.6-0.1,1.4-0.2,1.7-0.7c0,0,0-0.1,0-0.1C197.1,282.3,197.2,282.1,197,282z
								"/>
							<g>
								<linearGradient id="SVGID_22_" gradientUnits="userSpaceOnUse" x1="189.5632" y1="320.6794" x2="204.3596" y2="320.6794">
									<stop  offset="7.131410e-03" style="stop-color:#D7DFF2"/>
									<stop  offset="0.1958" style="stop-color:#C7D7EF"/>
									<stop  offset="0.5628" style="stop-color:#9EC3E8"/>
									<stop  offset="1" style="stop-color:#66A8DE"/>
								</linearGradient>
								<polygon class="st36" points="204.4,322.1 189.6,322.1 189.6,319.3 203.5,321.3 								"/>
								<linearGradient id="SVGID_23_" gradientUnits="userSpaceOnUse" x1="161.4069" y1="320.6794" x2="189.5632" y2="320.6794">
									<stop  offset="7.131410e-03" style="stop-color:#D7DFF2"/>
									<stop  offset="0.1958" style="stop-color:#C7D7EF"/>
									<stop  offset="0.5628" style="stop-color:#9EC3E8"/>
									<stop  offset="1" style="stop-color:#66A8DE"/>
								</linearGradient>
								<polygon class="st37" points="161.4,319.3 189.6,319.3 189.6,322.1 161.4,322.1 								"/>
							</g>
						</g>
						<g>
							<path class="st34" d="M191.7,283l-3.6,7.2l-2.8-8.4c-0.4-1.1-0.5-2.2-0.5-3.3l0-1.2l0-0.2l-0.1-3.8l7.8-1.1l0,3.1
								c0,0.6,0,1.2-0.1,1.7c0,0.1,0,0.8,0,1.5c0,0.2,0,0.3,0,0.5C192.7,280.5,192.3,281.8,191.7,283z"/>
							<path class="st23" d="M192.7,279.1c-1.2,0.2-2.6,0.2-3.9-0.1c-1.5-0.3-2.8-1-3.8-1.9l-0.1-3.8l7.8-1.1l0,3.1
								c0,0.6,0,1.2-0.1,1.7c0,0.1,0,0.8,0,1.5C192.7,278.8,192.7,278.9,192.7,279.1z"/>
							<path class="st34" d="M178.4,257.5c0.5,0,0.9,0.3,1.4,0.6c1.1-2.9,3.2-5.9,5.5-7.9c1-1,2-1.6,3.1-1.8
								c0.6-0.2,1.2-0.3,1.8-0.3c0.4,0,0.8,0.1,1.2,0.1c0.4,0.1,0.8,0.1,1.1,0.2c0.6,0.1,1.1,0.4,1.6,0.8c1,0.6,1.8,1.4,2.5,2.7
								c1.6,2.5,2.8,6,3,9.1c0.5-0.2,1.1-0.3,1.5-0.2c1.5,0.4,1.6,2.8,1,4.6c-0.9,2.2-2.7,2.7-4.4,2.9c-1,1.4-2.2,2.8-3.6,3.8
								c-1.5,1.3-3.3,2.2-5.2,2.3c-0.1,0-0.1,0-0.2,0c-0.1,0-0.2,0-0.3,0c-0.1,0-0.2,0-0.2,0c-0.1,0-0.1,0-0.2,0c-0.1,0-0.3,0-0.4,0
								c-0.1,0-0.3-0.1-0.4-0.1c-0.1,0-0.1,0-0.2,0c-0.1,0-0.1,0-0.2-0.1c-0.1,0-0.2-0.1-0.3-0.1c-0.1,0-0.1,0-0.2-0.1
								c-1.8-0.7-3.3-2.1-4.3-3.7c-1-1.4-1.8-3.1-2.4-4.7c-1.5-0.7-3.2-1.7-3.4-4C176,259.7,176.9,257.4,178.4,257.5z"/>
							<g>
								<g>
									<path class="st15" d="M189.2,269.5c1.1-0.2,2.4-0.8,3.1-2.5c0.1-0.1,0-0.3-0.1-0.4c-0.1-0.1-0.3,0-0.4,0.1
										c-1.3,3-4.5,2.1-4.6,2.1c-0.1,0-0.3,0-0.3,0.2c0,0.1,0,0.3,0.2,0.3C187,269.4,188,269.7,189.2,269.5z"/>
								</g>
								<g>
									<path class="st15" d="M193.7,263.5c-0.1,0.5-0.6,0.8-1.1,0.7c-0.5-0.1-0.8-0.6-0.7-1.1c0.1-0.5,0.6-0.8,1.1-0.7
										C193.5,262.5,193.8,263,193.7,263.5z"/>
								</g>
								<g>
									<path class="st15" d="M186.2,262.4c-0.1,0.5-0.6,0.8-1.1,0.7c-0.5-0.1-0.8-0.6-0.7-1.1c0.1-0.5,0.6-0.8,1.1-0.7
										C186,261.4,186.3,261.9,186.2,262.4z"/>
								</g>
								<g>
									<path class="st15" d="M195.1,261.3C195.1,261.3,195.1,261.3,195.1,261.3c0.2,0,0.3-0.2,0.2-0.3c-0.5-1.8-2-1.9-2.7-1.8
										c-0.1,0-0.2,0.2-0.2,0.3c0,0.1,0.2,0.2,0.3,0.2c0.1,0,1.6-0.3,2.1,1.4C194.9,261.3,195,261.3,195.1,261.3z"/>
								</g>
								<g>
									<path class="st15" d="M187.1,259.1C187.1,259.1,187.1,259,187.1,259.1c0.1-0.1,0.1-0.3,0-0.4c-1.5-1-2.7-0.2-3.2,0.4
										c-0.1,0.1-0.1,0.3,0,0.4c0.1,0.1,0.3,0.1,0.4,0c0,0,1-1.3,2.5-0.3C186.8,259.2,187,259.2,187.1,259.1z"/>
								</g>
								<g>
									<path class="st15" d="M187.7,266.5c0.1,0,0.3-0.1,0.3-0.2c0-0.1-0.1-0.3-0.2-0.3c0,0-0.5-0.1-0.6-0.4c0-0.1,0-0.5,0.8-1.3
										c0.1-0.1,0.1-0.3,0-0.4c-0.1-0.1-0.3-0.1-0.4,0c-0.8,0.8-1.1,1.4-1,1.9C186.8,266.4,187.6,266.5,187.7,266.5L187.7,266.5z"
										/>
								</g>
							</g>
						</g>
						<g>
							<path class="st15" d="M201.8,256.4c-0.2-1.9-1-5-3.2-5.3l-0.4,0.5c-0.7,3.1-0.4,7.2,1.4,10
								C200.8,260.1,202,258.4,201.8,256.4z"/>
						</g>
						<path class="st18" d="M221.5,299.4c1.3,1.5,1.8,3.4,1.5,5.2c-0.3,2.4-2.1,4.3-4.4,5.2l-20.4,5.9l-2.3-2.4l16.7-9.4L201.9,292
							c-3.1-3.4-4.7-6.1-3.5-10.6l0.3-1.3c0.6-2.5,3.7-3.2,5.4-1.3L221.5,299.4z"/>
						<path class="st34" d="M196.5,312.9c0,0-10.3,0.8-10.1,7.3c0,0-0.1,2.2,1.9-2c0,0,0.9-1.3,1.6-1.2c0,0-2.5,3.2-2.4,4.2
							c0,0.5,1.5,1.3,3.3-3.5c0,0-1.9,4.8,0,4.5l1.2-4.3l-0.2,3.8c0,0,1.4,1.8,1.6-3.4l0,0c0,0,0,0,0,0c1.9-0.3,3.5-0.8,4.7-2.4
							l0.2-0.4L196.5,312.9z"/>
						<g>
							<path class="st15" d="M201.2,253.9c-0.4-2.5-1.8-4.7-4.1-6.2c-2.9-1.8-6.9-2.4-10.3-1.7c-5,1-8.1,7.3-7.1,12.2
								c0.1,0.6,0.2,1.2,0.2,1.6c1.6-0.1,3.1-1.4,4.3-2.4c1.4-1.1,3-2.6,3.9-4.1c-0.8,2.1,1.4,4.3,2.9,5.3c-1-2,0.8-3.9,2.4-4.9
								c0.2,1.1-0.1,2,0.5,3c0.3,0.7,0.8,1.3,1.2,1.9c1.4,1.8,2.2,4,2.3,6.3c1-0.5,1.7-2.3,2.2-3.2
								C200.8,259.5,201.6,256.1,201.2,253.9z"/>
						</g>
						<path class="st18" d="M179.7,265.2c0,0.6-0.5,1.1-1.1,1.1c-0.6,0-1.1-0.5-1.1-1.1c0-0.6,0.5-1.1,1.1-1.1
							C179.2,264.1,179.7,264.6,179.7,265.2z"/>
						<path class="st18" d="M199.7,268.3c0,0.6-0.5,1.1-1.1,1.1c-0.6,0-1.1-0.5-1.1-1.1s0.5-1.1,1.1-1.1
							C199.2,267.2,199.7,267.7,199.7,268.3z"/>
						<path class="st19" d="M177,300.3c0-0.1-0.1-0.2-0.2-0.2c-1.2-2-2.5-4.2-1.8-6.7c0.5-1.7,1.5-3.1,1.9-4.8
							c0.1-0.3-0.4-0.5-0.5-0.1c-0.5,2.2-2.1,4.1-2.1,6.4c0,2.1,1.1,4,2.1,5.7c0,0,0.1,0,0.1,0.1c0.8,4.8,1.4,9.6-0.8,14.1
							c-0.2,0.3,0.3,0.6,0.5,0.3C178.5,310.3,177.8,305.3,177,300.3z"/>
						<path class="st4" d="M196.3,332.2c0.3,10.9-8.5,24.6-18.3,38.7c-0.3,0.4-0.6,0.9-1,1.4l-8.9-3l1.8-5.2l11.7-32.4
							c1.4-3.9,4.7-6.4,8.4-6.4c1.7,0,3.2,0.8,4.4,2C195.6,328.6,196.3,330.3,196.3,332.2z"/>
					</g>
				</g>
				<g>
					<g>
						<polygon class="st15" points="241.3,414.2 244.7,414.2 230.6,326.6 226.2,326.6 						"/>
						<polygon class="st15" points="227,414.2 230.3,414.2 216.2,326.6 211.8,326.6 						"/>
						<polygon class="st15" points="119.4,414.2 116,414.2 130.2,326.6 134.5,326.6 						"/>
						<polygon class="st15" points="133.8,414.2 130.4,414.2 144.5,326.6 148.9,326.6 						"/>
					</g>
					<path class="st38" d="M118.6,327.9h123.5c1,0,1.8-1.3,1.8-3l0,0c0-1.6-0.8-3-1.8-3H118.6c-1,0-1.8,1.3-1.8,3l0,0
						C116.9,326.6,117.6,327.9,118.6,327.9z"/>
				</g>
				<g>
					<g>
						<linearGradient id="SVGID_24_" gradientUnits="userSpaceOnUse" x1="141.8524" y1="307.6859" x2="141.8524" y2="256.5328">
							<stop  offset="0" style="stop-color:#66A8DE"/>
							<stop  offset="0.4372" style="stop-color:#9EC3E8"/>
							<stop  offset="0.8042" style="stop-color:#C7D7EF"/>
							<stop  offset="0.9929" style="stop-color:#D7DFF2"/>
						</linearGradient>
						<polygon class="st39" points="114.9,275.1 162.6,275.1 168.8,312.8 121.1,312.8 						"/>
						<linearGradient id="SVGID_25_" gradientUnits="userSpaceOnUse" x1="140.5564" y1="290.4456" x2="145.8221" y2="311.0504">
							<stop  offset="0" style="stop-color:#66A8DE"/>
							<stop  offset="0.4372" style="stop-color:#9EC3E8"/>
							<stop  offset="0.8042" style="stop-color:#C7D7EF"/>
							<stop  offset="0.9929" style="stop-color:#D7DFF2"/>
						</linearGradient>
						<polygon class="st40" points="130,289.1 152,289.1 154.8,306.4 132.9,306.4 						"/>
						<linearGradient id="SVGID_26_" gradientUnits="userSpaceOnUse" x1="151.9743" y1="296.9706" x2="155.8987" y2="296.9706">
							<stop  offset="0" style="stop-color:#66A8DE"/>
							<stop  offset="0.4372" style="stop-color:#9EC3E8"/>
							<stop  offset="0.8042" style="stop-color:#C7D7EF"/>
							<stop  offset="0.9929" style="stop-color:#D7DFF2"/>
						</linearGradient>
						<polygon class="st41" points="152,289.1 153.2,287.5 155.9,304.9 154.8,306.4 						"/>
						<linearGradient id="SVGID_27_" gradientUnits="userSpaceOnUse" x1="130.0412" y1="288.3133" x2="153.1642" y2="288.3133">
							<stop  offset="0" style="stop-color:#66A8DE"/>
							<stop  offset="0.4372" style="stop-color:#9EC3E8"/>
							<stop  offset="0.8042" style="stop-color:#C7D7EF"/>
							<stop  offset="0.9929" style="stop-color:#D7DFF2"/>
						</linearGradient>
						<polygon class="st42" points="153.2,287.5 131.2,287.5 130,289.1 152,289.1 						"/>
						<linearGradient id="SVGID_28_" gradientUnits="userSpaceOnUse" x1="162.648" y1="293.1856" x2="169.8588" y2="293.1856">
							<stop  offset="0" style="stop-color:#66A8DE"/>
							<stop  offset="0.4372" style="stop-color:#9EC3E8"/>
							<stop  offset="0.8042" style="stop-color:#C7D7EF"/>
							<stop  offset="0.9929" style="stop-color:#D7DFF2"/>
						</linearGradient>
						<polygon class="st43" points="168.8,312.8 169.9,311.2 163.9,273.6 162.6,275.1 						"/>
						<linearGradient id="SVGID_29_" gradientUnits="userSpaceOnUse" x1="114.8762" y1="274.3296" x2="163.9355" y2="274.3296">
							<stop  offset="0" style="stop-color:#66A8DE"/>
							<stop  offset="0.4372" style="stop-color:#9EC3E8"/>
							<stop  offset="0.8042" style="stop-color:#C7D7EF"/>
							<stop  offset="0.9929" style="stop-color:#D7DFF2"/>
						</linearGradient>
						<polygon class="st44" points="163.9,273.6 116,273.6 114.9,275.1 162.6,275.1 						"/>
					</g>
					<linearGradient id="SVGID_30_" gradientUnits="userSpaceOnUse" x1="143.4299" y1="321.3387" x2="143.4299" y2="317.1925">
						<stop  offset="7.131410e-03" style="stop-color:#D7DFF2"/>
						<stop  offset="0.1958" style="stop-color:#C7D7EF"/>
						<stop  offset="0.5628" style="stop-color:#9EC3E8"/>
						<stop  offset="1" style="stop-color:#66A8DE"/>
					</linearGradient>
					<path class="st45" d="M131.2,318.7h24.5c1.8,0,3.2,1.4,3.2,3.2l0,0H128l0,0C128,320.1,129.4,318.7,131.2,318.7z"/>
					<linearGradient id="SVGID_31_" gradientUnits="userSpaceOnUse" x1="142.9785" y1="320.9953" x2="142.9785" y2="297.8698">
						<stop  offset="0" style="stop-color:#66A8DE"/>
						<stop  offset="0.4372" style="stop-color:#9EC3E8"/>
						<stop  offset="0.8042" style="stop-color:#C7D7EF"/>
						<stop  offset="0.9929" style="stop-color:#D7DFF2"/>
					</linearGradient>
					<path class="st46" d="M151,318.7l-1.3-16.5c-0.3-3.5-3.2-6.2-6.7-6.2h0c-3.5,0-6.5,2.7-6.7,6.2l-1.3,16.5H151z"/>
				</g>
			</g>
			<g>
				<g>
					<g>
						<g>
							<linearGradient id="SVGID_32_" gradientUnits="userSpaceOnUse" x1="409.2984" y1="285.4812" x2="449.4552" y2="285.4812">
								<stop  offset="1.165870e-02" style="stop-color:#5692A3"/>
								<stop  offset="0.1678" style="stop-color:#629DA5"/>
								<stop  offset="0.9961" style="stop-color:#A0D6AD"/>
							</linearGradient>
							<path class="st47" d="M409.3,285.1c0.1-3.6,1.5-7.4,4.5-9.4c3.7-2.4,7.6-0.2,11.3,1.5c-1.1-2.8-4.4-3.6-6.6-5.1
								c9.9-6.5,22.8-5,22.8-5s7.6,8.9,7.9,13c-2.1-0.5-4.3-1.2-6.5-1.5c2.1,0.8,5.4,4,6.4,6.9c0.9,2.5-1,6.9-2.2,9.2
								c-2.3,4.6-10.1,13.3-15.4,7.2c-4.5-5.1-2.5-12.2-11.5-9.9C413.3,293.7,409.1,293.5,409.3,285.1z"/>
						</g>
						<path class="st4" d="M415.7,337.1c-0.4-12.2-0.8-24.8,2.8-36.6c1.3-4.4,3.2-9.1,5.5-13.2c-1-0.6-1.9-1.6-2.9-2.2
							c-1.6-1-3.4-1.6-5.3-1.9c-0.6-0.1-0.3-1,0.3-0.9c1.6,0.3,3.2,0.8,4.6,1.6c0.7,0.4,1.4,0.8,2,1.3c0.5,0.4,1.1,1,1.6,1.4
							c0.4-0.7,0.8-1.4,1.2-2.1c0.1-0.2,0.3-0.5,0.5-0.7c-1.4-2-3-3.7-5-5.1c-0.5-0.4,0-1.2,0.5-0.8c2,1.4,3.7,3.1,5.1,5.1
							c1.1-1.5,2.4-2.9,3.7-4.3c-0.7-2.2-1.7-4.3-3-6.2c-0.3-0.5,0.5-1,0.8-0.5c1.3,1.8,2.2,3.8,2.9,5.9c1.4-1.4,2.8-2.7,4.2-4
							c-0.7-1.3-1.3-2.7-1.8-4c-0.2-0.6,0.6-1,0.8-0.5c0.5,1.3,1.1,2.6,1.7,3.8c0.8-0.8,1.6-1.5,2.4-2.3c0.4-0.4,1.1,0.3,0.7,0.7
							c-0.7,0.7-1.5,1.4-2.2,2.2c1.8,0.1,3.7,0.2,5.5,0.3c0.6,0,0.6,1,0,1c-2-0.1-4-0.2-5.9-0.4c-0.1,0-0.3-0.1-0.3-0.2
							c-1.4,1.3-2.7,2.5-4.1,3.9c1.8,0.1,3.5,0.4,5.2,0.8c1.5,0.4,3.1,0.6,4.3,1.7c0.5,0.4-0.2,1.1-0.7,0.7c-1.2-1.1-3-1.3-4.5-1.6
							c-1.7-0.4-3.4-0.6-5.1-0.6c0,0-0.1,0-0.1,0c-1.2,1.2-2.3,2.5-3.3,3.8c4.8,0.5,9.5,1.4,13.2,4.7c0.5,0.4-0.2,1.1-0.7,0.7
							c-3.6-3.3-8.4-4.1-13.1-4.5c-0.4,0.6-0.8,1.1-1.1,1.7c-0.2,0.4-0.5,0.9-0.7,1.3c2.3,0.5,4.8,0.9,6.8,2.1
							c1.8,1.1,3.2,2.6,4.3,4.3c0.4,0.5-0.5,1-0.8,0.5c-1.2-1.7-2.7-3.3-4.5-4.2c-1.9-1-4.2-1.3-6.3-1.8c0,0,0,0,0,0
							c-2.5,4.6-4.6,9.6-6,14.6c-3.1,11.3-2.7,23.2-2.4,34.8C416.7,337.8,415.7,337.8,415.7,337.1z"/>
					</g>
					<g>
						<g>
							<linearGradient id="SVGID_33_" gradientUnits="userSpaceOnUse" x1="386.5264" y1="297.8138" x2="418.8505" y2="297.8138">
								<stop  offset="1.165870e-02" style="stop-color:#5692A3"/>
								<stop  offset="0.1678" style="stop-color:#629DA5"/>
								<stop  offset="0.9961" style="stop-color:#A0D6AD"/>
							</linearGradient>
							<path class="st48" d="M418.8,297.5c-0.1-2.9-1.2-6-3.7-7.5c-3-1.9-6.1-0.2-9.1,1.2c0.9-2.2,3.5-2.9,5.3-4.1
								c-8-5.2-18.3-4-18.3-4s-6.1,7.1-6.4,10.5c1.7-0.4,3.4-1,5.2-1.2c-1.7,0.6-4.3,3.2-5.2,5.6c-0.7,2,0.8,5.5,1.7,7.4
								c1.9,3.7,8.1,10.7,12.4,5.8c3.6-4.1,2-9.8,9.3-8C415.6,304.4,419,304.3,418.8,297.5z"/>
						</g>
						<path class="st4" d="M413.7,339.4c0.3-9.8,0.6-19.9-2.3-29.4c-1.1-3.5-2.6-7.3-4.4-10.6c0.8-0.5,1.5-1.3,2.3-1.8
							c1.3-0.8,2.7-1.3,4.2-1.6c0.5-0.1,0.3-0.8-0.2-0.7c-1.3,0.3-2.6,0.7-3.7,1.3c-0.6,0.3-1.1,0.6-1.6,1c-0.4,0.3-0.8,0.8-1.3,1.1
							c-0.3-0.6-0.7-1.1-1-1.7c-0.1-0.2-0.3-0.4-0.4-0.6c1.1-1.6,2.4-3,4.1-4.1c0.4-0.3,0-0.9-0.4-0.7c-1.6,1.1-3,2.5-4.1,4.1
							c-0.9-1.2-1.9-2.3-3-3.5c0.6-1.8,1.4-3.4,2.5-5c0.3-0.4-0.4-0.8-0.7-0.4c-1,1.5-1.8,3.1-2.4,4.7c-1.1-1.1-2.2-2.2-3.4-3.2
							c0.5-1.1,1-2.1,1.5-3.3c0.2-0.5-0.5-0.8-0.7-0.4c-0.4,1-0.9,2.1-1.4,3.1c-0.7-0.6-1.3-1.2-1.9-1.9c-0.4-0.4-0.9,0.2-0.5,0.6
							c0.6,0.6,1.2,1.2,1.8,1.7c-1.5,0.1-3,0.2-4.4,0.3c-0.5,0-0.5,0.8,0,0.8c1.6-0.1,3.2-0.2,4.8-0.3c0.1,0,0.2-0.1,0.3-0.1
							c1.1,1,2.2,2,3.3,3.1c-1.4,0.1-2.8,0.3-4.2,0.6c-1.2,0.3-2.5,0.5-3.5,1.4c-0.4,0.3,0.2,0.9,0.6,0.5c0.9-0.9,2.4-1,3.6-1.3
							c1.4-0.3,2.7-0.5,4.1-0.5c0,0,0.1,0,0.1,0c0.9,1,1.9,2,2.7,3c-3.8,0.4-7.7,1.1-10.6,3.8c-0.4,0.3,0.2,0.9,0.6,0.5
							c2.9-2.7,6.8-3.3,10.6-3.6c0.3,0.4,0.6,0.9,0.9,1.4c0.2,0.3,0.4,0.7,0.6,1c-1.9,0.4-3.8,0.7-5.5,1.7c-1.4,0.9-2.5,2.1-3.5,3.5
							c-0.3,0.4,0.4,0.8,0.7,0.4c1-1.4,2.1-2.6,3.6-3.4c1.5-0.8,3.4-1.1,5.1-1.4c0,0,0,0,0,0c2,3.7,3.7,7.7,4.8,11.8
							c2.5,9.1,2.2,18.7,1.9,28C412.9,339.9,413.7,339.9,413.7,339.4z"/>
					</g>
					<g>
						<g>
							<linearGradient id="SVGID_34_" gradientUnits="userSpaceOnUse" x1="419.8679" y1="303.3155" x2="454.1111" y2="303.3155">
								<stop  offset="1.165870e-02" style="stop-color:#5692A3"/>
								<stop  offset="0.1678" style="stop-color:#629DA5"/>
								<stop  offset="0.9961" style="stop-color:#A0D6AD"/>
							</linearGradient>
							<path class="st49" d="M420.4,297.9c0.8-2.9,2.7-5.8,5.6-6.8c3.5-1.2,6.3,1.3,9,3.5c-0.3-2.5-2.9-3.8-4.4-5.5
								c9.4-3.3,19.6,0.4,19.6,0.4s4.4,8.8,3.9,12.3c-1.7-0.8-3.2-1.8-5-2.5c1.6,1.1,3.6,4.3,3.9,7c0.2,2.2-2.2,5.4-3.6,7.1
								c-2.8,3.3-10.9,8.9-14,2.8c-2.6-5.1,0.4-10.4-7.5-10.4C422,305.8,418.5,304.8,420.4,297.9z"/>
						</g>
						<path class="st4" d="M415.2,341.8c2.1-10.1,4.3-20.4,9.6-29.4c2-3.3,4.4-6.8,7.1-9.7c-0.7-0.7-1.2-1.7-1.9-2.4
							c-1.1-1.1-2.5-2-3.9-2.6c-0.5-0.2-0.1-0.9,0.4-0.7c1.3,0.6,2.4,1.3,3.5,2.2c0.5,0.4,1,0.9,1.4,1.4c0.3,0.4,0.7,1,1.1,1.4
							c0.5-0.5,0.9-1,1.4-1.5c0.2-0.2,0.4-0.3,0.5-0.5c-0.7-1.9-1.7-3.7-3.1-5.2c-0.3-0.4,0.2-1,0.6-0.6c1.4,1.5,2.4,3.3,3.2,5.2
							c1.2-1,2.5-1.9,3.9-2.8c-0.1-1.9-0.6-3.8-1.3-5.6c-0.2-0.5,0.6-0.7,0.8-0.2c0.7,1.7,1.1,3.5,1.2,5.4c1.4-0.8,2.8-1.6,4.2-2.4
							c-0.3-1.2-0.5-2.4-0.7-3.7c-0.1-0.5,0.7-0.7,0.8-0.2c0.2,1.2,0.4,2.3,0.7,3.5c0.8-0.5,1.6-0.9,2.4-1.4
							c0.4-0.3,0.8,0.4,0.4,0.7c-0.7,0.4-1.5,0.9-2.3,1.3c1.5,0.5,3,0.9,4.4,1.4c0.5,0.2,0.3,0.9-0.2,0.8c-1.6-0.5-3.2-1-4.8-1.5
							c-0.1,0-0.2-0.1-0.2-0.2c-1.4,0.8-2.7,1.5-4.1,2.4c1.4,0.4,2.8,1,4.1,1.7c1.2,0.6,2.4,1.1,3.2,2.2c0.3,0.4-0.4,0.8-0.7,0.4
							c-0.7-1.1-2.2-1.6-3.4-2.2c-1.3-0.6-2.6-1.2-4-1.5c0,0-0.1,0-0.1,0c-1.2,0.8-2.4,1.6-3.4,2.4c3.8,1.3,7.5,3,9.8,6.5
							c0.3,0.4-0.4,0.8-0.7,0.4c-2.3-3.4-6.1-5-9.9-6.3c-0.4,0.4-0.8,0.8-1.2,1.2c-0.3,0.3-0.6,0.6-0.9,0.9c1.8,0.9,3.7,1.7,5.2,3.1
							c1.2,1.2,2.1,2.8,2.7,4.4c0.2,0.5-0.6,0.7-0.8,0.2c-0.7-1.6-1.5-3.2-2.9-4.4c-1.4-1.2-3.2-1.9-4.8-2.7c0,0,0,0,0,0
							c-3,3.3-5.6,7-7.8,10.8c-4.8,8.6-6.8,18.4-8.8,28C415.9,342.5,415.1,342.3,415.2,341.8z"/>
					</g>
				</g>
				<g>
					<g>
						<g>
							<linearGradient id="SVGID_35_" gradientUnits="userSpaceOnUse" x1="410.9937" y1="310.3727" x2="433.9221" y2="310.3727">
								<stop  offset="1.165870e-02" style="stop-color:#5692A3"/>
								<stop  offset="0.1678" style="stop-color:#629DA5"/>
								<stop  offset="0.9961" style="stop-color:#A0D6AD"/>
							</linearGradient>
							<path class="st50" d="M411,310.1c0-2,0.8-4.2,2.6-5.4c2.1-1.4,4.4-0.1,6.5,0.8c-0.6-1.6-2.5-2-3.8-2.9c5.7-3.7,13-2.9,13-2.9
								s4.3,5.1,4.5,7.5c-1.2-0.3-2.4-0.7-3.7-0.9c1.2,0.4,3.1,2.3,3.7,4c0.5,1.4-0.6,3.9-1.2,5.3c-1.3,2.6-5.8,7.6-8.8,4.1
								c-2.5-2.9-1.4-6.9-6.6-5.7C413.3,315,410.9,315,411,310.1z"/>
						</g>
						<path class="st4" d="M414.6,339.9c-0.2-7-0.4-14.1,1.6-20.9c0.8-2.5,1.8-5.2,3.1-7.6c-0.6-0.3-1.1-0.9-1.6-1.3
							c-0.9-0.6-1.9-0.9-3-1.1c-0.3-0.1-0.2-0.6,0.2-0.5c0.9,0.2,1.8,0.5,2.7,0.9c0.4,0.2,0.8,0.4,1.2,0.7c0.3,0.2,0.6,0.5,0.9,0.8
							c0.2-0.4,0.5-0.8,0.7-1.2c0.1-0.1,0.2-0.3,0.3-0.4c-0.8-1.2-1.7-2.1-2.9-2.9c-0.3-0.2,0-0.7,0.3-0.5c1.1,0.8,2.1,1.8,2.9,2.9
							c0.6-0.9,1.4-1.7,2.1-2.4c-0.4-1.3-1-2.4-1.7-3.5c-0.2-0.3,0.3-0.6,0.5-0.3c0.7,1,1.3,2.2,1.7,3.4c0.8-0.8,1.6-1.5,2.4-2.3
							c-0.4-0.8-0.7-1.5-1.1-2.3c-0.1-0.3,0.3-0.6,0.5-0.3c0.3,0.7,0.6,1.5,1,2.2c0.5-0.4,0.9-0.9,1.4-1.3c0.2-0.2,0.6,0.1,0.4,0.4
							c-0.4,0.4-0.8,0.8-1.3,1.2c1,0.1,2.1,0.1,3.1,0.2c0.3,0,0.3,0.6,0,0.5c-1.1-0.1-2.3-0.1-3.4-0.2c-0.1,0-0.1,0-0.2-0.1
							c-0.8,0.7-1.6,1.5-2.3,2.2c1,0,2,0.2,3,0.4c0.9,0.2,1.8,0.3,2.5,1c0.3,0.2-0.1,0.6-0.4,0.4c-0.7-0.6-1.7-0.7-2.6-0.9
							c-1-0.2-1.9-0.4-2.9-0.4c0,0,0,0-0.1,0c-0.7,0.7-1.3,1.4-1.9,2.2c2.7,0.3,5.4,0.8,7.5,2.7c0.3,0.2-0.1,0.6-0.4,0.4
							c-2.1-1.9-4.8-2.3-7.5-2.6c-0.2,0.3-0.4,0.6-0.6,1c-0.1,0.2-0.3,0.5-0.4,0.7c1.3,0.3,2.7,0.5,3.9,1.2c1,0.6,1.8,1.5,2.5,2.4
							c0.2,0.3-0.3,0.5-0.5,0.3c-0.7-1-1.5-1.9-2.6-2.4c-1.1-0.6-2.4-0.7-3.6-1c0,0,0,0,0,0c-1.4,2.6-2.6,5.5-3.4,8.3
							c-1.8,6.5-1.6,13.3-1.3,19.9C415.2,340.2,414.6,340.2,414.6,339.9z"/>
					</g>
					<g>
						<g>
							<linearGradient id="SVGID_36_" gradientUnits="userSpaceOnUse" x1="397.9915" y1="317.4143" x2="416.4477" y2="317.4143">
								<stop  offset="1.165870e-02" style="stop-color:#5692A3"/>
								<stop  offset="0.1678" style="stop-color:#629DA5"/>
								<stop  offset="0.9961" style="stop-color:#A0D6AD"/>
							</linearGradient>
							<path class="st51" d="M416.4,317.2c0-1.6-0.7-3.4-2.1-4.3c-1.7-1.1-3.5-0.1-5.2,0.7c0.5-1.3,2-1.6,3-2.4
								c-4.6-3-10.5-2.3-10.5-2.3s-3.5,4.1-3.7,6c1-0.2,2-0.6,3-0.7c-1,0.4-2.5,1.8-2.9,3.2c-0.4,1.1,0.5,3.2,1,4.2
								c1.1,2.1,4.6,6.1,7.1,3.3c2-2.3,1.1-5.6,5.3-4.6C414.6,321.2,416.5,321.1,416.4,317.2z"/>
						</g>
						<path class="st4" d="M413.5,341.2c0.2-5.6,0.3-11.4-1.3-16.8c-0.6-2-1.5-4.2-2.5-6.1c0.5-0.3,0.9-0.7,1.3-1
							c0.8-0.4,1.6-0.7,2.4-0.9c0.3-0.1,0.1-0.5-0.1-0.4c-0.7,0.1-1.5,0.4-2.1,0.7c-0.3,0.2-0.6,0.4-0.9,0.6
							c-0.2,0.2-0.5,0.4-0.7,0.6c-0.2-0.3-0.4-0.7-0.6-1c-0.1-0.1-0.1-0.2-0.2-0.3c0.6-0.9,1.4-1.7,2.3-2.4c0.2-0.2,0-0.5-0.2-0.4
							c-0.9,0.6-1.7,1.4-2.4,2.4c-0.5-0.7-1.1-1.3-1.7-2c0.3-1,0.8-2,1.4-2.8c0.2-0.2-0.2-0.4-0.4-0.2c-0.6,0.8-1,1.7-1.4,2.7
							c-0.6-0.6-1.3-1.2-1.9-1.8c0.3-0.6,0.6-1.2,0.8-1.9c0.1-0.3-0.3-0.5-0.4-0.2c-0.2,0.6-0.5,1.2-0.8,1.8
							c-0.4-0.4-0.8-0.7-1.1-1.1c-0.2-0.2-0.5,0.1-0.3,0.3c0.3,0.3,0.7,0.7,1,1c-0.8,0.1-1.7,0.1-2.5,0.2c-0.3,0-0.3,0.5,0,0.4
							c0.9-0.1,1.8-0.1,2.7-0.2c0.1,0,0.1,0,0.2-0.1c0.6,0.6,1.3,1.2,1.9,1.8c-0.8,0-1.6,0.2-2.4,0.4c-0.7,0.2-1.4,0.3-2,0.8
							c-0.2,0.2,0.1,0.5,0.3,0.3c0.5-0.5,1.4-0.6,2.1-0.7c0.8-0.2,1.5-0.3,2.3-0.3c0,0,0,0,0.1,0c0.5,0.6,1.1,1.1,1.5,1.7
							c-2.2,0.2-4.4,0.6-6.1,2.2c-0.2,0.2,0.1,0.5,0.3,0.3c1.7-1.5,3.9-1.9,6-2.1c0.2,0.3,0.4,0.5,0.5,0.8c0.1,0.2,0.2,0.4,0.3,0.6
							c-1.1,0.2-2.2,0.4-3.1,1c-0.8,0.5-1.4,1.2-2,2c-0.2,0.2,0.2,0.4,0.4,0.2c0.6-0.8,1.2-1.5,2.1-1.9c0.9-0.5,1.9-0.6,2.9-0.8
							c0,0,0,0,0,0c1.1,2.1,2.1,4.4,2.7,6.7c1.4,5.2,1.3,10.7,1.1,16C413.1,341.5,413.5,341.4,413.5,341.2z"/>
					</g>
					<g>
						<g>
							<linearGradient id="SVGID_37_" gradientUnits="userSpaceOnUse" x1="417.0285" y1="320.5556" x2="436.5804" y2="320.5556">
								<stop  offset="1.165870e-02" style="stop-color:#5692A3"/>
								<stop  offset="0.1678" style="stop-color:#629DA5"/>
								<stop  offset="0.9961" style="stop-color:#A0D6AD"/>
							</linearGradient>
							<path class="st52" d="M417.3,317.5c0.4-1.7,1.5-3.3,3.2-3.9c2-0.7,3.6,0.8,5.1,2c-0.2-1.4-1.6-2.2-2.5-3.1
								c5.4-1.9,11.2,0.2,11.2,0.2s2.5,5,2.2,7c-0.9-0.5-1.8-1.1-2.9-1.4c0.9,0.6,2.1,2.5,2.2,4c0.1,1.3-1.2,3.1-2.1,4.1
								c-1.6,1.9-6.2,5.1-8,1.6c-1.5-2.9,0.2-6-4.3-6C418.2,322,416.3,321.4,417.3,317.5z"/>
						</g>
						<path class="st4" d="M414.4,342.5c1.2-5.8,2.5-11.6,5.5-16.8c1.1-1.9,2.5-3.9,4.1-5.6c-0.4-0.4-0.7-1-1.1-1.3
							c-0.7-0.6-1.4-1.1-2.2-1.5c-0.3-0.1,0-0.5,0.2-0.4c0.7,0.3,1.4,0.7,2,1.3c0.3,0.3,0.6,0.5,0.8,0.8c0.2,0.2,0.4,0.6,0.6,0.8
							c0.3-0.3,0.5-0.6,0.8-0.8c0.1-0.1,0.2-0.2,0.3-0.3c-0.4-1.1-1-2.1-1.8-3c-0.2-0.2,0.1-0.5,0.3-0.3c0.8,0.9,1.4,1.9,1.8,3
							c0.7-0.6,1.4-1.1,2.2-1.6c-0.1-1.1-0.3-2.2-0.7-3.2c-0.1-0.3,0.3-0.4,0.4-0.1c0.4,1,0.6,2,0.7,3.1c0.8-0.5,1.6-0.9,2.4-1.4
							c-0.2-0.7-0.3-1.4-0.4-2.1c0-0.3,0.4-0.4,0.4-0.1c0.1,0.7,0.2,1.3,0.4,2c0.5-0.3,0.9-0.5,1.4-0.8c0.3-0.2,0.5,0.2,0.2,0.4
							c-0.4,0.3-0.8,0.5-1.3,0.8c0.8,0.3,1.7,0.5,2.5,0.8c0.3,0.1,0.2,0.5-0.1,0.4c-0.9-0.3-1.8-0.6-2.7-0.8c-0.1,0-0.1-0.1-0.1-0.1
							c-0.8,0.4-1.6,0.9-2.3,1.3c0.8,0.2,1.6,0.6,2.3,1c0.7,0.3,1.4,0.6,1.8,1.3c0.2,0.2-0.2,0.5-0.4,0.2c-0.4-0.6-1.3-0.9-1.9-1.3
							c-0.7-0.4-1.5-0.7-2.3-0.9c0,0,0,0-0.1,0c-0.7,0.4-1.4,0.9-2,1.4c2.2,0.8,4.3,1.7,5.6,3.7c0.2,0.2-0.2,0.5-0.4,0.2
							c-1.3-2-3.5-2.8-5.6-3.6c-0.2,0.2-0.5,0.4-0.7,0.7c-0.2,0.2-0.3,0.3-0.5,0.5c1,0.5,2.1,1,2.9,1.8c0.7,0.7,1.2,1.6,1.5,2.5
							c0.1,0.3-0.3,0.4-0.4,0.1c-0.4-0.9-0.9-1.8-1.6-2.5c-0.8-0.7-1.8-1.1-2.7-1.6c0,0,0,0,0,0c-1.7,1.9-3.2,4-4.4,6.2
							c-2.7,4.9-3.9,10.5-5,16C414.8,342.9,414.3,342.8,414.4,342.5z"/>
					</g>
					<g>
						<g>
							<linearGradient id="SVGID_38_" gradientUnits="userSpaceOnUse" x1="400.1687" y1="328.4381" x2="412.4133" y2="328.4381">
								<stop  offset="1.165870e-02" style="stop-color:#5692A3"/>
								<stop  offset="0.1678" style="stop-color:#629DA5"/>
								<stop  offset="0.9961" style="stop-color:#A0D6AD"/>
							</linearGradient>
							<path class="st53" d="M412.2,326.5c-0.3-1-1-2.1-2-2.4c-1.3-0.4-2.2,0.5-3.2,1.2c0.1-0.9,1-1.4,1.6-2c-3.4-1.2-7,0.2-7,0.2
								s-1.6,3.1-1.4,4.4c0.6-0.3,1.2-0.7,1.8-0.9c-0.6,0.4-1.3,1.6-1.4,2.5c-0.1,0.8,0.8,1.9,1.3,2.5c1,1.2,3.9,3.2,5,1
								c0.9-1.8-0.1-3.7,2.7-3.7C411.7,329.3,412.9,329,412.2,326.5z"/>
						</g>
						<path class="st4" d="M414.1,342.2c-0.7-3.6-1.5-7.3-3.4-10.5c-0.7-1.2-1.6-2.4-2.5-3.5c0.2-0.2,0.4-0.6,0.7-0.8
							c0.4-0.4,0.9-0.7,1.4-0.9c0.2-0.1,0-0.3-0.1-0.2c-0.5,0.2-0.9,0.5-1.2,0.8c-0.2,0.2-0.4,0.3-0.5,0.5c-0.1,0.1-0.2,0.4-0.4,0.5
							c-0.2-0.2-0.3-0.4-0.5-0.5c-0.1-0.1-0.1-0.1-0.2-0.2c0.3-0.7,0.6-1.3,1.1-1.9c0.1-0.1-0.1-0.3-0.2-0.2
							c-0.5,0.6-0.9,1.2-1.1,1.9c-0.4-0.4-0.9-0.7-1.4-1c0.1-0.7,0.2-1.4,0.5-2c0.1-0.2-0.2-0.2-0.3-0.1c-0.2,0.6-0.4,1.3-0.4,1.9
							c-0.5-0.3-1-0.6-1.5-0.9c0.1-0.4,0.2-0.9,0.3-1.3c0-0.2-0.2-0.3-0.3-0.1c-0.1,0.4-0.1,0.8-0.2,1.2c-0.3-0.2-0.6-0.3-0.9-0.5
							c-0.2-0.1-0.3,0.2-0.1,0.2c0.3,0.2,0.5,0.3,0.8,0.5c-0.5,0.2-1.1,0.3-1.6,0.5c-0.2,0.1-0.1,0.3,0.1,0.3
							c0.6-0.2,1.1-0.4,1.7-0.5c0,0,0.1,0,0.1-0.1c0.5,0.3,1,0.6,1.5,0.8c-0.5,0.1-1,0.4-1.5,0.6c-0.4,0.2-0.9,0.4-1.1,0.8
							c-0.1,0.2,0.1,0.3,0.2,0.1c0.3-0.4,0.8-0.6,1.2-0.8c0.5-0.2,0.9-0.4,1.4-0.5c0,0,0,0,0,0c0.4,0.3,0.8,0.6,1.2,0.9
							c-1.4,0.5-2.7,1.1-3.5,2.3c-0.1,0.2,0.1,0.3,0.2,0.1c0.8-1.2,2.2-1.8,3.5-2.3c0.2,0.1,0.3,0.3,0.4,0.4
							c0.1,0.1,0.2,0.2,0.3,0.3c-0.6,0.3-1.3,0.6-1.8,1.1c-0.4,0.4-0.7,1-1,1.6c-0.1,0.2,0.2,0.2,0.3,0.1c0.2-0.6,0.5-1.1,1-1.6
							c0.5-0.4,1.1-0.7,1.7-1c0,0,0,0,0,0c1.1,1.2,2,2.5,2.8,3.9c1.7,3.1,2.4,6.6,3.2,10C413.8,342.5,414.1,342.4,414.1,342.2z"/>
					</g>
				</g>
				<linearGradient id="SVGID_39_" gradientUnits="userSpaceOnUse" x1="402.7172" y1="377.3236" x2="426.7459" y2="377.3236">
					<stop  offset="0.357" style="stop-color:#D7DFF2"/>
					<stop  offset="0.4792" style="stop-color:#C7D7EF"/>
					<stop  offset="0.7168" style="stop-color:#9EC3E8"/>
					<stop  offset="1" style="stop-color:#66A8DE"/>
				</linearGradient>
				<path class="st54" d="M427,384c0-9.8-1.8-18.6-4.6-24.3c-3.1-6.4-4.6-13.5-4.6-20.7l0,0h-5.7l0,0c0,7.1-1.5,14.2-4.6,20.7
					c-2.8,5.7-4.6,14.4-4.6,24.3c0,13.6,3.4,25.2,8.2,29.4v2.2h7.7v-2.2C423.5,409.2,427,397.7,427,384z"/>
			</g>
		</g>
	</g>
</g>
<g id="DESIGNED_BY_FREEPIK">
</g>
</svg>
